<!DOCTYPE svg PUBLIC "-//W3C//DTD SVG 1.1//EN" "http://www.w3.org/Graphics/SVG/1.1/DTD/svg11.dtd">
<!-- Uploaded to: SVG Repo, www.svgrepo.com, Transformed by: SVG Repo Mixer Tools -->
<svg fill="#ffffff" height="64px" width="64px" version="1.1" id="Layer_1" xmlns="http://www.w3.org/2000/svg" xmlns:xlink="http://www.w3.org/1999/xlink" viewBox="0 0 511.998 511.998" xml:space="preserve" stroke="#ffffff">
<g id="SVGRepo_bgCarrier" stroke-width="0"/>
<g id="SVGRepo_tracerCarrier" stroke-linecap="round" stroke-linejoin="round"/>
<g id="SVGRepo_iconCarrier"> <g> <g> <path d="M490.668,106.667C490.668,42.416,384.632,0,256.001,0S21.334,42.416,21.334,106.667v92.861l-0.004-0.002v248.472 c0,43.339,100.394,64,234.667,64s234.667-20.661,234.667-64V234.751c0-0.029,0.004-0.056,0.004-0.085V106.667z M64.001,170.17 c0.129,0.082,0.265,0.161,0.394,0.243c1.057,0.67,2.132,1.332,3.223,1.989c0.18,0.108,0.353,0.219,0.534,0.326 c1.275,0.76,2.575,1.51,3.894,2.251c0.384,0.216,0.778,0.427,1.165,0.641c0.954,0.527,1.915,1.05,2.891,1.568 c0.484,0.257,0.974,0.511,1.464,0.765c0.922,0.479,1.854,0.953,2.795,1.423c0.495,0.247,0.988,0.495,1.488,0.739 c1.053,0.515,2.121,1.024,3.196,1.528c0.383,0.179,0.759,0.362,1.144,0.54c1.461,0.675,2.942,1.341,4.444,1.997 c0.317,0.138,0.641,0.272,0.96,0.41c1.198,0.517,2.406,1.028,3.628,1.532c0.527,0.217,1.061,0.431,1.593,0.646 c1.048,0.424,2.104,0.843,3.17,1.258c0.568,0.221,1.136,0.441,1.709,0.659c1.105,0.421,2.222,0.836,3.345,1.247 c0.515,0.188,1.025,0.379,1.543,0.565c1.617,0.581,3.247,1.155,4.899,1.715c0.017,0.006,0.033,0.012,0.05,0.018 c1.669,0.566,3.361,1.119,5.065,1.664c0.538,0.172,1.084,0.34,1.625,0.51c1.189,0.373,2.385,0.743,3.591,1.106 c0.627,0.189,1.258,0.376,1.889,0.562c1.177,0.347,2.363,0.688,3.555,1.025c0.609,0.172,1.215,0.345,1.828,0.515 c1.406,0.389,2.824,0.77,4.25,1.145c0.391,0.103,0.777,0.21,1.17,0.312c1.816,0.472,3.649,0.932,5.497,1.381 c0.482,0.117,0.971,0.23,1.455,0.345c1.381,0.33,2.767,0.656,4.165,0.974c0.663,0.151,1.33,0.298,1.997,0.446 c1.261,0.28,2.529,0.555,3.803,0.825c0.684,0.145,1.367,0.289,2.055,0.431c1.367,0.282,2.743,0.557,4.125,0.828 c0.573,0.112,1.141,0.228,1.717,0.338c1.948,0.373,3.909,0.737,5.884,1.088c0.265,0.047,0.533,0.09,0.798,0.137 c1.717,0.301,3.444,0.594,5.181,0.878c0.664,0.109,1.333,0.212,2.001,0.318c1.369,0.217,2.743,0.431,4.124,0.637 c0.731,0.109,1.464,0.217,2.198,0.323c1.389,0.201,2.784,0.395,4.185,0.585c0.679,0.092,1.356,0.186,2.037,0.276 c1.779,0.234,3.567,0.458,5.363,0.673c0.292,0.035,0.581,0.073,0.873,0.108c2.085,0.247,4.182,0.479,6.289,0.702 c0.619,0.065,1.242,0.125,1.863,0.188c1.507,0.154,3.018,0.303,4.537,0.444c0.764,0.071,1.53,0.139,2.296,0.207 c1.424,0.126,2.854,0.246,4.287,0.361c0.759,0.061,1.517,0.122,2.279,0.18c1.603,0.122,3.212,0.234,4.825,0.342 c0.57,0.038,1.137,0.08,1.709,0.117c2.175,0.138,4.359,0.265,6.553,0.378c0.473,0.024,0.95,0.044,1.424,0.067 c1.734,0.085,3.471,0.164,5.216,0.233c0.759,0.03,1.521,0.056,2.283,0.083c1.493,0.053,2.989,0.101,4.489,0.143 c0.804,0.022,1.608,0.044,2.414,0.063c1.547,0.036,3.098,0.065,4.651,0.089c0.716,0.011,1.43,0.025,2.147,0.033 c2.252,0.026,4.51,0.043,6.777,0.043c2.267,0,4.525-0.017,6.777-0.043c0.717-0.008,1.431-0.022,2.147-0.033 c1.554-0.024,3.105-0.052,4.651-0.089c0.806-0.019,1.61-0.04,2.414-0.063c1.5-0.042,2.996-0.09,4.489-0.143 c0.761-0.027,1.523-0.053,2.283-0.083c1.745-0.069,3.482-0.148,5.216-0.233c0.474-0.023,0.951-0.042,1.424-0.067 c2.194-0.113,4.378-0.24,6.553-0.378c0.572-0.036,1.139-0.078,1.709-0.117c1.613-0.108,3.223-0.221,4.825-0.342 c0.762-0.058,1.52-0.119,2.279-0.18c1.434-0.115,2.863-0.235,4.287-0.361c0.766-0.068,1.533-0.136,2.296-0.207 c1.518-0.141,3.029-0.29,4.537-0.444c0.621-0.063,1.244-0.123,1.863-0.188c2.107-0.222,4.205-0.455,6.289-0.702 c0.292-0.035,0.581-0.073,0.873-0.108c1.796-0.216,3.584-0.44,5.363-0.673c0.682-0.09,1.358-0.184,2.037-0.276 c1.4-0.19,2.796-0.384,4.185-0.585c0.734-0.106,1.467-0.214,2.198-0.323c1.381-0.207,2.755-0.42,4.124-0.637 c0.667-0.106,1.336-0.21,2.001-0.318c1.737-0.284,3.464-0.577,5.181-0.878c0.265-0.047,0.534-0.09,0.798-0.137 c1.976-0.35,3.936-0.714,5.884-1.088c0.575-0.11,1.144-0.226,1.717-0.338c1.381-0.271,2.758-0.546,4.125-0.828 c0.687-0.142,1.371-0.287,2.055-0.431c1.274-0.27,2.542-0.545,3.803-0.825c0.667-0.148,1.334-0.295,1.997-0.446 c1.398-0.318,2.784-0.644,4.165-0.974c0.484-0.116,0.973-0.228,1.455-0.345c1.848-0.45,3.681-0.91,5.497-1.381 c0.393-0.102,0.779-0.209,1.17-0.312c1.426-0.375,2.844-0.756,4.25-1.145c0.612-0.169,1.219-0.343,1.828-0.515 c1.192-0.337,2.378-0.678,3.555-1.025c0.632-0.186,1.262-0.373,1.889-0.562c1.206-0.363,2.401-0.733,3.591-1.106 c0.542-0.17,1.087-0.338,1.625-0.51c1.704-0.545,3.396-1.098,5.065-1.664c0.017-0.006,0.033-0.012,0.05-0.018 c1.652-0.561,3.283-1.134,4.899-1.715c0.518-0.186,1.028-0.377,1.543-0.565c1.123-0.411,2.24-0.826,3.345-1.247 c0.572-0.218,1.141-0.438,1.709-0.659c1.066-0.415,2.122-0.834,3.17-1.258c0.532-0.215,1.066-0.429,1.593-0.646 c1.223-0.504,2.43-1.016,3.628-1.532c0.318-0.137,0.643-0.271,0.96-0.41c1.502-0.655,2.982-1.321,4.444-1.997 c0.386-0.178,0.762-0.361,1.144-0.54c1.076-0.505,2.143-1.013,3.196-1.528c0.5-0.245,0.993-0.492,1.488-0.739 c0.941-0.47,1.873-0.944,2.795-1.423c0.49-0.254,0.979-0.508,1.464-0.765c0.976-0.517,1.937-1.041,2.891-1.568 c0.388-0.214,0.781-0.426,1.165-0.641c1.319-0.741,2.619-1.491,3.894-2.251c0.181-0.108,0.354-0.218,0.534-0.326 c1.091-0.656,2.166-1.319,3.223-1.989c0.129-0.082,0.266-0.161,0.394-0.243v49.138c-12.286,3.759-33.207,10.123-55.925,16.912 c-108.643,32.451-224.617,27.012-328.075-15.568V170.17z M256.001,42.667c107.009,0,192,33.997,192,64s-84.991,64-192,64 s-192-33.997-192-64S148.992,42.667,256.001,42.667z M447.997,442.584c-1.09,0.67-2.504,1.44-4.223,2.261 c-8.762,4.183-22.559,8.352-40.162,11.975c-38.393,7.901-90.883,12.511-147.614,12.511s-109.221-4.61-147.614-12.511 c-17.603-3.623-31.4-7.792-40.162-11.975c-1.72-0.821-3.134-1.591-4.223-2.261V266.48c108.341,40.422,227.969,44.17,340.292,10.62 c18.374-5.49,32.699-9.794,43.708-13.159V442.584z"/> </g> </g> </g>
</svg>