<svg width="20" height="20" viewBox="0 0 20 20" fill="none" xmlns="http://www.w3.org/2000/svg">
<path d="M10.0088 1.67578C10.6569 1.67582 11.2829 1.91192 11.7696 2.33995L11.8979 2.46078L12.4796 3.04245C12.6392 3.20104 12.8477 3.30116 13.0713 3.32661L13.1838 3.33328H14.0171C14.6981 3.33324 15.3533 3.59376 15.8484 4.0614C16.3435 4.52904 16.6409 5.16837 16.6796 5.84828L16.6838 5.99995V6.83328C16.6838 7.05828 16.7604 7.27745 16.8988 7.45245L16.9738 7.53578L17.5546 8.11745C18.036 8.59615 18.3167 9.24046 18.3395 9.91901C18.3623 10.5975 18.1254 11.2592 17.6771 11.7691L17.5563 11.8974L16.9746 12.4791C16.816 12.6387 16.7159 12.8472 16.6904 13.0708L16.6838 13.1833V14.0166C16.6838 14.6976 16.4233 15.3529 15.9556 15.8479C15.488 16.343 14.8487 16.6404 14.1688 16.6791L14.0171 16.6833H13.1838C12.9591 16.6834 12.741 16.7591 12.5646 16.8983L12.4813 16.9733L11.8996 17.5541C11.4209 18.0355 10.7766 18.3163 10.098 18.339C9.41949 18.3618 8.75782 18.1249 8.24792 17.6766L8.11959 17.5558L7.53792 16.9741C7.37829 16.8155 7.16983 16.7154 6.94626 16.6899L6.83376 16.6833H6.00042C5.31941 16.6833 4.66419 16.4228 4.16912 15.9552C3.67405 15.4875 3.37666 14.8482 3.33792 14.1683L3.33376 14.0166V13.1833C3.33368 12.9586 3.25795 12.7405 3.11876 12.5641L3.04376 12.4808L2.46292 11.8991C1.98149 11.4204 1.70078 10.7761 1.67801 10.0976C1.65525 9.41902 1.89216 8.75734 2.34042 8.24745L2.46126 8.11912L3.04292 7.53745C3.20152 7.37782 3.30164 7.16936 3.32709 6.94578L3.33376 6.83328V5.99995L3.33792 5.84828C3.37513 5.19449 3.65161 4.57724 4.11466 4.11419C4.57772 3.65114 5.19496 3.37466 5.84876 3.33745L6.00042 3.33328H6.83376C7.05844 3.33321 7.27655 3.25747 7.45292 3.11828L7.53626 3.04328L8.11792 2.46245C8.36571 2.21319 8.66032 2.01537 8.98481 1.88036C9.30931 1.74536 9.6573 1.67583 10.0088 1.67578ZM13.0896 7.74412C12.9333 7.58789 12.7214 7.50013 12.5004 7.50013C12.2795 7.50013 12.0675 7.58789 11.9113 7.74412L9.16709 10.4874L8.08959 9.41078L8.01126 9.34162C7.84376 9.21211 7.63326 9.1512 7.42249 9.17128C7.21172 9.19136 7.01649 9.29091 6.87646 9.44972C6.73644 9.60852 6.66211 9.81467 6.66857 10.0263C6.67503 10.2379 6.7618 10.4391 6.91126 10.5891L8.57793 12.2558L8.65626 12.3249C8.8166 12.4493 9.0168 12.5109 9.21933 12.4982C9.42185 12.4855 9.61276 12.3993 9.75626 12.2558L13.0896 8.92245L13.1588 8.84412C13.2831 8.68378 13.3447 8.48357 13.332 8.28105C13.3193 8.07853 13.2331 7.88761 13.0896 7.74412Z" fill="white"/>
</svg>
