<svg width="20" height="20" viewBox="0 0 20 20" fill="none" xmlns="http://www.w3.org/2000/svg">
<g clip-path="url(#clip0_1149_860)">
<path d="M15.4652 4.0752C15.2136 4.0752 15.0088 4.27998 15.0088 4.53161C15.0088 4.78324 15.2136 4.98802 15.4652 4.98802C15.7169 4.98802 15.9217 4.78328 15.9217 4.53161C15.9217 4.27994 15.7169 4.0752 15.4652 4.0752ZM10.0004 5.95024C7.76926 5.95024 5.9541 7.76539 5.9541 9.9965C5.9541 12.2276 7.76926 14.0428 10.0004 14.0428C12.2315 14.0428 14.0467 12.2276 14.0467 9.99654C14.0467 7.76543 12.2315 5.95024 10.0004 5.95024Z" fill="white"/>
<path d="M14.2464 0.599609H5.75383C2.91206 0.599609 0.600098 2.91157 0.600098 5.75338V14.2459C0.600098 17.0877 2.91206 19.3996 5.75383 19.3996H14.2464C17.0882 19.3996 19.4001 17.0876 19.4001 14.2459V5.75338C19.4001 2.91157 17.0882 0.599609 14.2464 0.599609ZM10.0001 15.1561C7.15678 15.1561 4.84365 12.8429 4.84365 9.99961C4.84365 7.15629 7.15682 4.84319 10.0001 4.84319C12.8434 4.84319 15.1566 7.15633 15.1566 9.99961C15.1566 12.8429 12.8434 15.1561 10.0001 15.1561ZM15.465 6.1014C14.6011 6.1014 13.8983 5.3986 13.8983 4.53476C13.8983 3.67091 14.6011 2.96808 15.465 2.96808C16.3288 2.96808 17.0316 3.67088 17.0316 4.53472C17.0316 5.39857 16.3288 6.1014 15.465 6.1014Z" fill="white"/>
</g>
<defs>
<clipPath id="clip0_1149_860">
<rect width="20" height="20" fill="white"/>
</clipPath>
</defs>
</svg>
