<svg width="20" height="20" viewBox="0 0 20 20" fill="none" xmlns="http://www.w3.org/2000/svg">
<g clip-path="url(#clip0_3128_486)">
<path d="M19.5786 19.5838L19.5834 19.583V12.5414C19.5834 9.09659 18.8418 6.44299 14.8146 6.44299C12.8786 6.44299 11.5794 7.50539 11.049 8.51259H10.993V6.76459H7.17462V19.583H11.1506V13.2358C11.1506 11.5646 11.4674 9.94859 13.537 9.94859C15.5762 9.94859 15.6066 11.8558 15.6066 13.343V19.5838H19.5786ZM0.700223 6.76539H4.68102V19.5838H0.700223V6.76539ZM2.68902 0.383789C1.41622 0.383789 0.383423 1.41659 0.383423 2.68939C0.383423 3.96219 1.41622 5.01659 2.68902 5.01659C3.96182 5.01659 4.99462 3.96219 4.99462 2.68939C4.9942 2.07804 4.75115 1.49184 4.31886 1.05955C3.88657 0.62726 3.30038 0.384213 2.68902 0.383789Z" fill="white"/>
</g>
<defs>
<clipPath id="clip0_3128_486">
<rect width="20" height="20" fill="white"/>
</clipPath>
</defs>
</svg>
