<svg width="39" height="47" viewBox="0 0 39 47" fill="none" xmlns="http://www.w3.org/2000/svg">
<path d="M5.54734 31L29.9473 1.2H33.8273L9.42734 31H5.54734ZM9.90734 16.32C8.46734 16.32 7.16068 15.9733 5.98734 15.28C4.81401 14.56 3.86734 13.6133 3.14734 12.44C2.45401 11.2667 2.10734 9.96 2.10734 8.52C2.10734 7.08 2.45401 5.77333 3.14734 4.6C3.86734 3.4 4.81401 2.45333 5.98734 1.76C7.16068 1.06667 8.46734 0.719999 9.90734 0.719999C11.3473 0.719999 12.654 1.06667 13.8273 1.76C15.0007 2.45333 15.934 3.4 16.6273 4.6C17.3207 5.77333 17.6673 7.08 17.6673 8.52C17.6673 9.96 17.3207 11.2667 16.6273 12.44C15.934 13.6133 15.0007 14.56 13.8273 15.28C12.654 15.9733 11.3473 16.32 9.90734 16.32ZM9.90734 13.44C10.8407 13.44 11.654 13.2133 12.3473 12.76C13.0673 12.28 13.6273 11.6667 14.0273 10.92C14.454 10.1467 14.6673 9.34667 14.6673 8.52C14.6673 7.66667 14.454 6.86667 14.0273 6.12C13.6273 5.37333 13.0673 4.77333 12.3473 4.32C11.654 3.84 10.8407 3.6 9.90734 3.6C9.00068 3.6 8.17401 3.84 7.42734 4.32C6.70734 4.77333 6.13401 5.37333 5.70734 6.12C5.30734 6.86667 5.10734 7.66667 5.10734 8.52C5.10734 9.34667 5.30734 10.1467 5.70734 10.92C6.13401 11.6667 6.70734 12.28 7.42734 12.76C8.17401 13.2133 9.00068 13.44 9.90734 13.44ZM29.1073 31.48C27.6673 31.48 26.3607 31.1333 25.1873 30.44C24.014 29.72 23.0673 28.7733 22.3473 27.6C21.654 26.4267 21.3073 25.12 21.3073 23.68C21.3073 22.24 21.654 20.9333 22.3473 19.76C23.0673 18.56 24.014 17.6133 25.1873 16.92C26.3607 16.2267 27.6673 15.88 29.1073 15.88C30.5473 15.88 31.854 16.2267 33.0273 16.92C34.2007 17.6133 35.134 18.56 35.8273 19.76C36.5207 20.9333 36.8673 22.24 36.8673 23.68C36.8673 25.12 36.5207 26.4267 35.8273 27.6C35.134 28.7733 34.2007 29.72 33.0273 30.44C31.854 31.1333 30.5473 31.48 29.1073 31.48ZM29.1073 28.6C30.0407 28.6 30.854 28.3733 31.5473 27.92C32.2673 27.44 32.8273 26.8267 33.2273 26.08C33.654 25.3067 33.8673 24.5067 33.8673 23.68C33.8673 22.8267 33.654 22.0267 33.2273 21.28C32.8273 20.5333 32.2673 19.9333 31.5473 19.48C30.854 19 30.0407 18.76 29.1073 18.76C28.2007 18.76 27.374 19 26.6273 19.48C25.9073 19.9333 25.334 20.5333 24.9073 21.28C24.5073 22.0267 24.3073 22.8267 24.3073 23.68C24.3073 24.5067 24.5073 25.3067 24.9073 26.08C25.334 26.8267 25.9073 27.44 26.6273 27.92C27.374 28.3733 28.2007 28.6 29.1073 28.6Z" fill="white"/>
</svg>
