<svg width="22" height="28" viewBox="0 0 22 28" fill="none" xmlns="http://www.w3.org/2000/svg">
<path d="M21.9842 11.1016C21.9842 4.97038 17.0657 1.11958e-05 10.9984 1.11958e-05C5.59081 -0.00769521 0.982475 3.96383 0.136277 9.36111C-0.709921 14.7584 2.45789 19.9749 7.603 21.6568V27.2193C7.603 27.6505 7.94888 28 8.37555 28H13.5903C14.017 28 14.3629 27.6505 14.3629 27.2193V21.6607C18.9008 20.1841 21.979 15.9192 21.9842 11.1016ZM10.9984 14.8529C8.94716 14.8529 7.28432 13.1725 7.28432 11.0997C7.28432 9.02683 8.94716 7.34645 10.9984 7.34645C13.0496 7.34645 14.7125 9.02683 14.7125 11.0997C14.7125 13.1725 13.0496 14.8529 10.9984 14.8529Z" fill="#2684FF"/>
<path fill-rule="evenodd" clip-rule="evenodd" d="M10.9983 1.02964e-05V7.35036C13.0496 7.35036 14.7124 9.03074 14.7124 11.1036C14.7124 13.1765 13.0496 14.8568 10.9983 14.8568C11.8989 14.8568 12.7625 15.2183 13.3992 15.8618C14.036 16.5053 14.3937 17.378 14.3937 18.288V21.6646C19.5407 19.9824 22.7099 14.7643 21.8637 9.36502C21.0176 3.96579 16.4078 -0.00738136 10.9983 1.02964e-05Z" fill="url(#paint0_linear_41_363)"/>
<defs>
<linearGradient id="paint0_linear_41_363" x1="16.4912" y1="19.6543" x2="16.4912" y2="7.86171" gradientUnits="userSpaceOnUse">
<stop offset="0.18" stop-color="#0052CC"/>
<stop offset="1" stop-color="#2684FF"/>
</linearGradient>
</defs>
</svg>
