<svg width="29" height="20" viewBox="0 0 29 20" fill="none" xmlns="http://www.w3.org/2000/svg">
<path d="M14.5 19.9999C18.1203 19.9999 21.0551 17.1535 21.0551 13.6423C21.0551 10.1311 18.1203 7.28467 14.5 7.28467C10.8797 7.28467 7.94482 10.1311 7.94482 13.6423C7.94482 17.1535 10.8797 19.9999 14.5 19.9999Z" fill="url(#paint0_linear_41_34)"/>
<path fill-rule="evenodd" clip-rule="evenodd" d="M0.676751 6.28759L4.19635 10.3307C4.32645 10.4791 4.51242 10.5707 4.71269 10.5851C4.91296 10.5994 5.11081 10.5353 5.26199 10.4071C10.9616 5.45058 18.0196 5.45058 23.7343 10.4071C23.8854 10.5353 24.0833 10.5994 24.2836 10.5851C24.4838 10.5707 24.6698 10.4791 24.7999 10.3307L28.3232 6.28759C28.5892 5.98167 28.5507 5.52488 28.2369 5.26498C19.9633 -1.75499 9.03299 -1.75499 0.763052 5.26498C0.449329 5.52488 0.41078 5.98167 0.676751 6.28759Z" fill="#2684FF"/>
<defs>
<linearGradient id="paint0_linear_41_34" x1="14.5" y1="17.8128" x2="14.5" y2="6.54955" gradientUnits="userSpaceOnUse">
<stop stop-color="#2684FF"/>
<stop offset="0.82" stop-color="#0052CC"/>
</linearGradient>
</defs>
</svg>
