<svg width="20" height="20" viewBox="0 0 20 20" fill="none" xmlns="http://www.w3.org/2000/svg">
<path d="M14.9287 3.40839C14.1963 2.57599 13.7926 1.50699 13.793 0.400391H10.4822V13.6271C10.4567 14.3428 10.1532 15.0208 9.63556 15.5182C9.11795 16.0156 8.42665 16.2936 7.70724 16.2937C6.18581 16.2937 4.92153 15.0564 4.92153 13.5204C4.92153 11.6857 6.7001 10.3097 8.53224 10.8751V7.50439C4.83581 7.01372 1.6001 9.87239 1.6001 13.5204C1.6001 17.0724 4.55724 19.6004 7.69653 19.6004C11.0608 19.6004 13.793 16.8804 13.793 13.5204V6.81106C15.1355 7.7709 16.7473 8.28588 18.4001 8.28306V4.98706C18.4001 4.98706 16.3858 5.08306 14.9287 3.40839Z" fill="white"/>
</svg>
