<svg width="20" height="24" viewBox="0 0 20 24" fill="none" xmlns="http://www.w3.org/2000/svg">
<path d="M15.6125 16.7997C14.4266 17.8664 12.8929 18.4454 11.3105 18.4238C7.6638 18.4238 4.98575 15.6977 4.98575 11.9566C4.98575 8.21545 7.57832 5.60533 11.3105 5.60533C12.8965 5.58354 14.436 6.1505 15.641 7.20043L16.4387 7.89636L19.9714 4.30027L19.0883 3.45923C16.9514 1.516 14.1756 0.46022 11.3105 0.501147C4.75783 0.501147 0 5.3153 0 11.9276C0 18.5397 4.87179 23.499 11.3105 23.499C14.2028 23.5383 17.0024 22.4607 19.1452 20.4828L20 19.6708L16.4102 16.0747L15.6125 16.7997Z" fill="white"/>
</svg>
