<svg width="1170" height="806" viewBox="0 0 1170 806" fill="none" xmlns="http://www.w3.org/2000/svg">
<path d="M0 32C0 14.3269 14.3269 0 32 0H1138C1155.67 0 1170 14.3269 1170 32V774C1170 791.673 1155.67 806 1138 806H32C14.3269 806 0 791.673 0 774V32Z" fill="#0E1116"/>
<line x1="61.25" y1="806" x2="61.25" y2="153" stroke="url(#paint0_linear_299_2602)" stroke-width="1.5" stroke-dasharray="7 7"/>
<line x1="148.583" y1="806" x2="148.583" y2="153" stroke="url(#paint1_linear_299_2602)" stroke-width="1.5" stroke-dasharray="7 7"/>
<line x1="235.917" y1="806" x2="235.916" y2="153" stroke="url(#paint2_linear_299_2602)" stroke-width="1.5" stroke-dasharray="7 7"/>
<line x1="323.25" y1="806" x2="323.25" y2="153" stroke="url(#paint3_linear_299_2602)" stroke-width="1.5" stroke-dasharray="7 7"/>
<line x1="410.583" y1="806" x2="410.583" y2="153" stroke="url(#paint4_linear_299_2602)" stroke-width="1.5" stroke-dasharray="7 7"/>
<line x1="497.917" y1="806" x2="497.916" y2="153" stroke="url(#paint5_linear_299_2602)" stroke-width="1.5" stroke-dasharray="7 7"/>
<line x1="585.25" y1="806" x2="585.25" y2="153" stroke="url(#paint6_linear_299_2602)" stroke-width="1.5" stroke-dasharray="7 7"/>
<line x1="672.583" y1="806" x2="672.583" y2="153" stroke="url(#paint7_linear_299_2602)" stroke-width="1.5" stroke-dasharray="7 7"/>
<line x1="759.917" y1="806" x2="759.917" y2="153" stroke="url(#paint8_linear_299_2602)" stroke-width="1.5" stroke-dasharray="7 7"/>
<line x1="847.25" y1="806" x2="847.25" y2="153" stroke="url(#paint9_linear_299_2602)" stroke-width="1.5" stroke-dasharray="7 7"/>
<line x1="934.583" y1="806" x2="934.583" y2="153" stroke="url(#paint10_linear_299_2602)" stroke-width="1.5" stroke-dasharray="7 7"/>
<line x1="1021.92" y1="806" x2="1021.92" y2="153" stroke="url(#paint11_linear_299_2602)" stroke-width="1.5" stroke-dasharray="7 7"/>
<line x1="1109.25" y1="806" x2="1109.25" y2="153" stroke="url(#paint12_linear_299_2602)" stroke-width="1.5" stroke-dasharray="7 7"/>
<path fill-rule="evenodd" clip-rule="evenodd" d="M234.206 98.7286L234.206 98.7287L234.205 98.7292L234.205 98.7296L234.203 98.7361L234.193 98.767C234.184 98.7954 234.169 98.8393 234.15 98.8975C234.11 99.014 234.049 99.1881 233.966 99.4114C233.801 99.8583 233.548 100.501 233.204 101.275C232.515 102.826 231.464 104.886 230.019 106.94C227.109 111.074 222.734 115.002 216.611 115.002V115.029H191.854H148.236H105L104.752 115.029C93.8219 115.029 88.1053 115.029 83.4206 116.45C72.8738 119.65 64.6203 127.903 61.421 138.45C59.9999 143.135 59.9999 148.851 60 159.781L60 160.029H62C62 148.792 62.0109 143.395 63.3349 139.031C66.3403 129.123 74.0935 121.37 84.0012 118.364C88.3658 117.04 93.7627 117.029 105 117.029H148.236H191.854H217.239V116.99C223.982 116.73 228.682 112.314 231.654 108.091C233.195 105.902 234.306 103.72 235.032 102.088L235.064 102.016C235.668 103.612 236.628 105.736 238.06 107.883C240.885 112.115 245.605 116.505 253.077 116.973V117.029H279.091H322.709H365.945C377.182 117.029 382.579 117.04 386.944 118.364C396.852 121.37 404.605 129.123 407.61 139.031C408.934 143.395 408.945 148.792 408.945 160.029H410.945V159.781C410.945 148.851 410.945 143.135 409.524 138.45C406.325 127.903 398.071 119.65 387.524 116.45C382.84 115.029 377.123 115.029 366.194 115.029L365.945 115.029H322.709H279.091H253.739L253.74 115.003C246.783 114.766 242.405 110.79 239.724 106.773C238.382 104.762 237.481 102.76 236.915 101.258C236.633 100.509 236.436 99.8878 236.31 99.4575C236.247 99.2425 236.202 99.0754 236.173 98.9642C236.159 98.9086 236.149 98.867 236.142 98.8403L236.135 98.8117L236.134 98.8063L236.134 98.8061L236.134 98.8057L236.134 98.8054L235.312 95.2158L234.206 98.7286Z" fill="#919191" fill-opacity="0.3"/>
<path fill-rule="evenodd" clip-rule="evenodd" d="M583.206 98.7286L583.206 98.7287L583.205 98.7292L583.205 98.7296L583.203 98.7361L583.193 98.767C583.187 98.7858 583.179 98.8114 583.168 98.8434C583.162 98.8598 583.156 98.8778 583.15 98.8975C583.11 99.014 583.049 99.1881 582.966 99.4114C582.801 99.8583 582.548 100.501 582.204 101.275C581.515 102.826 580.464 104.886 579.019 106.94C576.109 111.074 571.734 115.002 565.611 115.002V115.029H540.854H497.236H454L453.752 115.029C442.822 115.029 437.105 115.029 432.421 116.45C421.874 119.65 413.62 127.903 410.421 138.45C409 143.135 409 148.851 409 159.781L409 160.029H411C411 148.792 411.011 143.395 412.335 139.031C415.34 129.123 423.094 121.37 433.001 118.364C437.366 117.04 442.763 117.029 454 117.029H497.236H540.854H566.239V116.99C572.982 116.73 577.682 112.314 580.654 108.091C582.195 105.902 583.306 103.72 584.032 102.088L584.064 102.016C584.668 103.612 585.628 105.736 587.06 107.883C589.885 112.115 594.605 116.505 602.077 116.973V117.029H628.091H671.709H714.945C726.182 117.029 731.579 117.04 735.944 118.364C745.852 121.37 753.605 129.123 756.61 139.031C757.934 143.395 757.945 148.792 757.945 160.029H759.945V159.781C759.945 148.851 759.945 143.135 758.524 138.45C755.325 127.903 747.071 119.65 736.524 116.45C731.84 115.029 726.123 115.029 715.194 115.029L714.945 115.029H671.709H628.091H602.739L602.74 115.003C595.783 114.766 591.405 110.79 588.724 106.773C587.382 104.762 586.481 102.76 585.915 101.258C585.633 100.509 585.436 99.8878 585.31 99.4575C585.247 99.2425 585.202 99.0754 585.173 98.9642C585.159 98.9086 585.149 98.867 585.142 98.8403L585.135 98.8117L585.134 98.8063L585.134 98.8061L585.134 98.8057L585.134 98.8054L584.312 95.2158L583.206 98.7286Z" fill="#919191" fill-opacity="0.3"/>
<path fill-rule="evenodd" clip-rule="evenodd" d="M933.206 98.7286L933.206 98.7287L933.205 98.7292L933.205 98.7296L933.203 98.7361L933.193 98.767C933.184 98.7954 933.169 98.8393 933.15 98.8975C933.11 99.014 933.049 99.1881 932.966 99.4114C932.801 99.8583 932.548 100.501 932.204 101.275C931.515 102.826 930.464 104.886 929.019 106.94C926.109 111.074 921.734 115.002 915.611 115.002V115.029H890.854H847.236H804L803.752 115.029C792.822 115.029 787.105 115.029 782.421 116.45C771.874 119.65 763.62 127.903 760.421 138.45C759 143.135 759 148.851 759 159.781L759 160.029H761C761 148.792 761.011 143.395 762.335 139.031C765.34 129.123 773.094 121.37 783.001 118.364C787.366 117.04 792.763 117.029 804 117.029H847.236H890.854H916.239V116.99C922.982 116.73 927.682 112.314 930.654 108.091C932.195 105.902 933.306 103.72 934.032 102.088L934.064 102.016C934.668 103.612 935.628 105.736 937.06 107.883C939.885 112.115 944.605 116.505 952.077 116.973V117.029H978.091H1021.71H1064.95C1076.18 117.029 1081.58 117.04 1085.94 118.364C1095.85 121.37 1103.6 129.123 1106.61 139.031C1107.93 143.395 1107.95 148.792 1107.95 160.029H1109.95V159.781C1109.95 148.851 1109.95 143.135 1108.52 138.45C1105.32 127.903 1097.07 119.65 1086.52 116.45C1081.84 115.029 1076.12 115.029 1065.19 115.029L1064.95 115.029H1021.71H978.091H952.739L952.74 115.003C945.783 114.766 941.405 110.79 938.724 106.773C937.382 104.762 936.481 102.76 935.915 101.258C935.633 100.509 935.436 99.8878 935.31 99.4575C935.247 99.2425 935.202 99.0754 935.173 98.9642C935.159 98.9086 935.149 98.867 935.142 98.8403L935.135 98.8117L935.134 98.8063L935.134 98.8061L935.134 98.8057L935.134 98.8054L934.312 95.2158L933.206 98.7286Z" fill="#919191" fill-opacity="0.3"/>
<path d="M205.405 73.8C205.405 74.8667 205.231 75.8433 204.885 76.73C204.538 77.61 204.048 78.3667 203.415 79C202.788 79.6333 202.031 80.1267 201.145 80.48C200.265 80.8267 199.285 81 198.205 81H192.765V66.6H198.205C199.285 66.6 200.265 66.7767 201.145 67.13C202.031 67.4767 202.788 67.9667 203.415 68.6C204.048 69.2333 204.538 69.9933 204.885 70.88C205.231 71.76 205.405 72.7333 205.405 73.8ZM203.015 73.8C203.015 72.9733 202.901 72.23 202.675 71.57C202.455 70.91 202.135 70.3533 201.715 69.9C201.301 69.4467 200.798 69.1 200.205 68.86C199.611 68.6133 198.945 68.49 198.205 68.49H195.115V79.11H198.205C198.945 79.11 199.611 78.99 200.205 78.75C200.798 78.51 201.301 78.1633 201.715 77.71C202.135 77.25 202.455 76.6933 202.675 76.04C202.901 75.38 203.015 74.6333 203.015 73.8ZM209.644 70.8V81H207.494V70.8H209.644ZM210.004 67.72C210.004 67.9133 209.964 68.0967 209.884 68.27C209.81 68.4433 209.707 68.5967 209.574 68.73C209.44 68.8567 209.284 68.96 209.104 69.04C208.93 69.1133 208.744 69.15 208.544 69.15C208.35 69.15 208.167 69.1133 207.994 69.04C207.827 68.96 207.68 68.8567 207.554 68.73C207.427 68.5967 207.324 68.4433 207.244 68.27C207.17 68.0967 207.134 67.9133 207.134 67.72C207.134 67.52 207.17 67.3333 207.244 67.16C207.324 66.9867 207.427 66.8367 207.554 66.71C207.68 66.5767 207.827 66.4733 207.994 66.4C208.167 66.32 208.35 66.28 208.544 66.28C208.744 66.28 208.93 66.32 209.104 66.4C209.284 66.4733 209.44 66.5767 209.574 66.71C209.707 66.8367 209.81 66.9867 209.884 67.16C209.964 67.3333 210.004 67.52 210.004 67.72ZM218.435 72.65C218.382 72.7433 218.322 72.81 218.255 72.85C218.188 72.89 218.105 72.91 218.005 72.91C217.892 72.91 217.768 72.8767 217.635 72.81C217.502 72.7367 217.345 72.6567 217.165 72.57C216.985 72.4833 216.772 72.4067 216.525 72.34C216.285 72.2667 216.002 72.23 215.675 72.23C215.408 72.23 215.165 72.2633 214.945 72.33C214.732 72.39 214.548 72.48 214.395 72.6C214.248 72.7133 214.135 72.85 214.055 73.01C213.975 73.1633 213.935 73.33 213.935 73.51C213.935 73.75 214.008 73.95 214.155 74.11C214.302 74.27 214.495 74.41 214.735 74.53C214.975 74.6433 215.248 74.7467 215.555 74.84C215.862 74.9333 216.175 75.0333 216.495 75.14C216.815 75.2467 217.128 75.37 217.435 75.51C217.742 75.65 218.015 75.8233 218.255 76.03C218.495 76.23 218.688 76.4767 218.835 76.77C218.982 77.0567 219.055 77.4067 219.055 77.82C219.055 78.3 218.968 78.7433 218.795 79.15C218.622 79.5567 218.368 79.91 218.035 80.21C217.702 80.51 217.285 80.7433 216.785 80.91C216.292 81.0767 215.725 81.16 215.085 81.16C214.732 81.16 214.388 81.1267 214.055 81.06C213.728 81 213.415 80.9167 213.115 80.81C212.822 80.6967 212.545 80.5633 212.285 80.41C212.032 80.2567 211.805 80.09 211.605 79.91L212.105 79.09C212.165 78.99 212.238 78.9133 212.325 78.86C212.418 78.8 212.532 78.77 212.665 78.77C212.805 78.77 212.942 78.8167 213.075 78.91C213.215 78.9967 213.375 79.0933 213.555 79.2C213.742 79.3067 213.965 79.4067 214.225 79.5C214.485 79.5867 214.808 79.63 215.195 79.63C215.515 79.63 215.792 79.5933 216.025 79.52C216.258 79.44 216.452 79.3333 216.605 79.2C216.758 79.0667 216.872 78.9167 216.945 78.75C217.018 78.5767 217.055 78.3933 217.055 78.2C217.055 77.94 216.982 77.7267 216.835 77.56C216.688 77.3933 216.492 77.25 216.245 77.13C216.005 77.01 215.728 76.9033 215.415 76.81C215.108 76.7167 214.795 76.6167 214.475 76.51C214.155 76.4033 213.838 76.28 213.525 76.14C213.218 76 212.942 75.8233 212.695 75.61C212.455 75.39 212.262 75.1267 212.115 74.82C211.968 74.5067 211.895 74.1267 211.895 73.68C211.895 73.2733 211.975 72.8867 212.135 72.52C212.302 72.1533 212.542 71.83 212.855 71.55C213.175 71.27 213.565 71.05 214.025 70.89C214.492 70.7233 215.028 70.64 215.635 70.64C216.322 70.64 216.945 70.75 217.505 70.97C218.065 71.19 218.535 71.49 218.915 71.87L218.435 72.65ZM228.286 72.8C228.219 72.8867 228.156 72.9533 228.096 73C228.036 73.0467 227.949 73.07 227.836 73.07C227.722 73.07 227.602 73.03 227.476 72.95C227.356 72.87 227.209 72.7833 227.036 72.69C226.869 72.59 226.666 72.5 226.426 72.42C226.186 72.34 225.886 72.3 225.526 72.3C225.059 72.3 224.649 72.3833 224.296 72.55C223.949 72.7167 223.656 72.9567 223.416 73.27C223.182 73.5767 223.006 73.9533 222.886 74.4C222.772 74.84 222.716 75.3367 222.716 75.89C222.716 76.4633 222.779 76.9733 222.906 77.42C223.032 77.8667 223.212 78.2433 223.446 78.55C223.686 78.8567 223.972 79.09 224.306 79.25C224.646 79.41 225.026 79.49 225.446 79.49C225.859 79.49 226.196 79.44 226.456 79.34C226.716 79.24 226.932 79.13 227.106 79.01C227.279 78.89 227.426 78.78 227.546 78.68C227.672 78.58 227.806 78.53 227.946 78.53C228.119 78.53 228.252 78.5967 228.346 78.73L228.956 79.52C228.709 79.82 228.436 80.0733 228.136 80.28C227.836 80.4867 227.519 80.6567 227.186 80.79C226.852 80.9167 226.506 81.0067 226.146 81.06C225.786 81.12 225.422 81.15 225.056 81.15C224.422 81.15 223.829 81.0333 223.276 80.8C222.729 80.56 222.249 80.2167 221.836 79.77C221.429 79.3167 221.106 78.7667 220.866 78.12C220.632 77.4667 220.516 76.7233 220.516 75.89C220.516 75.1367 220.622 74.44 220.836 73.8C221.049 73.1533 221.359 72.5967 221.766 72.13C222.179 71.6633 222.689 71.3 223.296 71.04C223.902 70.7733 224.602 70.64 225.396 70.64C226.136 70.64 226.786 70.76 227.346 71C227.912 71.24 228.416 71.58 228.856 72.02L228.286 72.8ZM234.919 70.64C235.673 70.64 236.353 70.7633 236.959 71.01C237.573 71.2567 238.093 71.6067 238.519 72.06C238.953 72.5133 239.286 73.0633 239.519 73.71C239.753 74.3567 239.869 75.0833 239.869 75.89C239.869 76.6967 239.753 77.4233 239.519 78.07C239.286 78.7167 238.953 79.27 238.519 79.73C238.093 80.1833 237.573 80.5333 236.959 80.78C236.353 81.0267 235.673 81.15 234.919 81.15C234.159 81.15 233.473 81.0267 232.859 80.78C232.253 80.5333 231.733 80.1833 231.299 79.73C230.866 79.27 230.533 78.7167 230.299 78.07C230.066 77.4233 229.949 76.6967 229.949 75.89C229.949 75.0833 230.066 74.3567 230.299 73.71C230.533 73.0633 230.866 72.5133 231.299 72.06C231.733 71.6067 232.253 71.2567 232.859 71.01C233.473 70.7633 234.159 70.64 234.919 70.64ZM234.919 79.47C235.839 79.47 236.523 79.1633 236.969 78.55C237.423 77.93 237.649 77.0467 237.649 75.9C237.649 74.7533 237.423 73.87 236.969 73.25C236.523 72.6233 235.839 72.31 234.919 72.31C233.986 72.31 233.293 72.6233 232.839 73.25C232.386 73.87 232.159 74.7533 232.159 75.9C232.159 77.0467 232.386 77.93 232.839 78.55C233.293 79.1633 233.986 79.47 234.919 79.47ZM250.622 70.8L246.522 81H244.582L240.482 70.8H242.252C242.419 70.8 242.555 70.8433 242.662 70.93C242.775 71.01 242.849 71.1067 242.882 71.22L245.142 77.16C245.235 77.44 245.319 77.7167 245.392 77.99C245.465 78.2633 245.529 78.54 245.582 78.82C245.635 78.54 245.699 78.2667 245.772 78C245.852 77.7267 245.939 77.4467 246.032 77.16L248.332 71.22C248.372 71.1 248.445 71 248.552 70.92C248.659 70.84 248.789 70.8 248.942 70.8H250.622ZM258.488 74.75C258.488 74.39 258.435 74.0567 258.328 73.75C258.228 73.4367 258.078 73.1667 257.878 72.94C257.678 72.7067 257.428 72.5267 257.128 72.4C256.835 72.2667 256.495 72.2 256.108 72.2C255.328 72.2 254.715 72.4233 254.268 72.87C253.822 73.3167 253.538 73.9433 253.418 74.75H258.488ZM253.358 76.07C253.385 76.65 253.475 77.1533 253.628 77.58C253.782 78 253.985 78.35 254.238 78.63C254.498 78.91 254.805 79.12 255.158 79.26C255.518 79.3933 255.918 79.46 256.358 79.46C256.778 79.46 257.142 79.4133 257.448 79.32C257.755 79.22 258.022 79.1133 258.248 79C258.475 78.88 258.668 78.7733 258.828 78.68C258.988 78.58 259.135 78.53 259.268 78.53C259.442 78.53 259.575 78.5967 259.668 78.73L260.278 79.52C260.025 79.82 259.738 80.0733 259.418 80.28C259.098 80.4867 258.758 80.6567 258.398 80.79C258.038 80.9167 257.668 81.0067 257.288 81.06C256.908 81.12 256.538 81.15 256.178 81.15C255.472 81.15 254.815 81.0333 254.208 80.8C253.608 80.56 253.085 80.21 252.638 79.75C252.198 79.29 251.852 78.72 251.598 78.04C251.352 77.36 251.228 76.5767 251.228 75.69C251.228 74.9833 251.338 74.3233 251.558 73.71C251.785 73.0967 252.105 72.5633 252.518 72.11C252.938 71.6567 253.445 71.3 254.038 71.04C254.638 70.7733 255.315 70.64 256.068 70.64C256.695 70.64 257.275 70.7433 257.808 70.95C258.342 71.15 258.802 71.4467 259.188 71.84C259.575 72.2333 259.875 72.7167 260.088 73.29C260.308 73.8567 260.418 74.5033 260.418 75.23C260.418 75.5633 260.382 75.7867 260.308 75.9C260.235 76.0133 260.102 76.07 259.908 76.07H253.358ZM264.453 72.69C264.773 72.0433 265.16 71.5367 265.613 71.17C266.067 70.7967 266.61 70.61 267.243 70.61C267.463 70.61 267.67 70.6367 267.863 70.69C268.057 70.7367 268.23 70.81 268.383 70.91L268.233 72.53C268.207 72.6433 268.163 72.7233 268.103 72.77C268.05 72.81 267.977 72.83 267.883 72.83C267.783 72.83 267.64 72.8133 267.453 72.78C267.267 72.74 267.07 72.72 266.863 72.72C266.563 72.72 266.297 72.7633 266.063 72.85C265.837 72.9367 265.63 73.0633 265.443 73.23C265.263 73.3967 265.103 73.6 264.963 73.84C264.823 74.08 264.693 74.3533 264.573 74.66V81H262.423V70.8H263.673C263.9 70.8 264.057 70.8433 264.143 70.93C264.23 71.01 264.29 71.1533 264.323 71.36L264.453 72.69ZM278.856 70.8L273.236 83.9C273.163 84.0533 273.073 84.1733 272.966 84.26C272.866 84.3467 272.709 84.39 272.496 84.39H270.906L272.786 80.31L268.626 70.8H270.496C270.676 70.8 270.813 70.8433 270.906 70.93C271.006 71.01 271.079 71.1067 271.126 71.22L273.556 77.01C273.616 77.1767 273.669 77.3433 273.716 77.51C273.769 77.67 273.819 77.8367 273.866 78.01C273.919 77.8367 273.973 77.6667 274.026 77.5C274.079 77.3333 274.139 77.1667 274.206 77L276.536 71.22C276.583 71.1 276.659 71 276.766 70.92C276.879 70.84 277.003 70.8 277.136 70.8H278.856Z" fill="white"/>
<path d="M541.275 81H538.925V66.6H541.275V81ZM544.13 81V70.8H545.43C545.724 70.8 545.91 70.9367 545.99 71.21L546.13 72.1C546.317 71.8867 546.51 71.6933 546.71 71.52C546.91 71.34 547.124 71.1867 547.35 71.06C547.584 70.9267 547.83 70.8233 548.09 70.75C548.357 70.6767 548.644 70.64 548.95 70.64C549.277 70.64 549.577 70.6867 549.85 70.78C550.124 70.8733 550.364 71.0067 550.57 71.18C550.784 71.3533 550.967 71.5633 551.12 71.81C551.274 72.0567 551.4 72.3333 551.5 72.64C551.654 72.2867 551.847 71.9833 552.08 71.73C552.314 71.4767 552.574 71.27 552.86 71.11C553.147 70.95 553.45 70.8333 553.77 70.76C554.097 70.68 554.427 70.64 554.76 70.64C555.307 70.64 555.794 70.7267 556.22 70.9C556.654 71.0733 557.017 71.3267 557.31 71.66C557.61 71.9867 557.837 72.39 557.99 72.87C558.144 73.35 558.22 73.8967 558.22 74.51V81H556.07V74.51C556.07 73.79 555.914 73.25 555.6 72.89C555.294 72.5233 554.837 72.34 554.23 72.34C553.957 72.34 553.7 72.3867 553.46 72.48C553.22 72.5733 553.01 72.71 552.83 72.89C552.65 73.07 552.507 73.2967 552.4 73.57C552.3 73.8367 552.25 74.15 552.25 74.51V81H550.1V74.51C550.1 73.7633 549.95 73.2167 549.65 72.87C549.35 72.5167 548.91 72.34 548.33 72.34C547.93 72.34 547.56 72.4433 547.22 72.65C546.88 72.85 546.567 73.1267 546.28 73.48V81H544.13ZM562.882 78.44C563.182 78.8267 563.509 79.1 563.862 79.26C564.222 79.4133 564.619 79.49 565.052 79.49C565.892 79.49 566.545 79.1833 567.012 78.57C567.485 77.9567 567.722 77.0433 567.722 75.83C567.722 75.2033 567.669 74.67 567.562 74.23C567.455 73.7833 567.302 73.42 567.102 73.14C566.902 72.86 566.659 72.6567 566.372 72.53C566.085 72.4033 565.762 72.34 565.402 72.34C564.855 72.34 564.382 72.46 563.982 72.7C563.589 72.9333 563.222 73.27 562.882 73.71V78.44ZM562.772 72.28C563.199 71.78 563.682 71.3767 564.222 71.07C564.769 70.7633 565.402 70.61 566.122 70.61C566.695 70.61 567.215 70.7267 567.682 70.96C568.149 71.1867 568.549 71.52 568.882 71.96C569.215 72.4 569.472 72.9467 569.652 73.6C569.839 74.2467 569.932 74.99 569.932 75.83C569.932 76.5833 569.829 77.2867 569.622 77.94C569.422 78.5867 569.132 79.15 568.752 79.63C568.372 80.1033 567.912 80.4767 567.372 80.75C566.832 81.0167 566.222 81.15 565.542 81.15C564.942 81.15 564.432 81.0533 564.012 80.86C563.599 80.6667 563.222 80.4 562.882 80.06V84.39H560.732V70.8H562.032C562.325 70.8 562.512 70.9367 562.592 71.21L562.772 72.28ZM574.211 66.2V81H572.061V66.2H574.211ZM583.555 74.75C583.555 74.39 583.501 74.0567 583.395 73.75C583.295 73.4367 583.145 73.1667 582.945 72.94C582.745 72.7067 582.495 72.5267 582.195 72.4C581.901 72.2667 581.561 72.2 581.175 72.2C580.395 72.2 579.781 72.4233 579.335 72.87C578.888 73.3167 578.605 73.9433 578.485 74.75H583.555ZM578.425 76.07C578.451 76.65 578.541 77.1533 578.695 77.58C578.848 78 579.051 78.35 579.305 78.63C579.565 78.91 579.871 79.12 580.225 79.26C580.585 79.3933 580.985 79.46 581.425 79.46C581.845 79.46 582.208 79.4133 582.515 79.32C582.821 79.22 583.088 79.1133 583.315 79C583.541 78.88 583.735 78.7733 583.895 78.68C584.055 78.58 584.201 78.53 584.335 78.53C584.508 78.53 584.641 78.5967 584.735 78.73L585.345 79.52C585.091 79.82 584.805 80.0733 584.485 80.28C584.165 80.4867 583.825 80.6567 583.465 80.79C583.105 80.9167 582.735 81.0067 582.355 81.06C581.975 81.12 581.605 81.15 581.245 81.15C580.538 81.15 579.881 81.0333 579.275 80.8C578.675 80.56 578.151 80.21 577.705 79.75C577.265 79.29 576.918 78.72 576.665 78.04C576.418 77.36 576.295 76.5767 576.295 75.69C576.295 74.9833 576.405 74.3233 576.625 73.71C576.851 73.0967 577.171 72.5633 577.585 72.11C578.005 71.6567 578.511 71.3 579.105 71.04C579.705 70.7733 580.381 70.64 581.135 70.64C581.761 70.64 582.341 70.7433 582.875 70.95C583.408 71.15 583.868 71.4467 584.255 71.84C584.641 72.2333 584.941 72.7167 585.155 73.29C585.375 73.8567 585.485 74.5033 585.485 75.23C585.485 75.5633 585.448 75.7867 585.375 75.9C585.301 76.0133 585.168 76.07 584.975 76.07H578.425ZM587.49 81V70.8H588.79C589.083 70.8 589.27 70.9367 589.35 71.21L589.49 72.1C589.676 71.8867 589.87 71.6933 590.07 71.52C590.27 71.34 590.483 71.1867 590.71 71.06C590.943 70.9267 591.19 70.8233 591.45 70.75C591.716 70.6767 592.003 70.64 592.31 70.64C592.636 70.64 592.936 70.6867 593.21 70.78C593.483 70.8733 593.723 71.0067 593.93 71.18C594.143 71.3533 594.326 71.5633 594.48 71.81C594.633 72.0567 594.76 72.3333 594.86 72.64C595.013 72.2867 595.206 71.9833 595.44 71.73C595.673 71.4767 595.933 71.27 596.22 71.11C596.506 70.95 596.81 70.8333 597.13 70.76C597.456 70.68 597.786 70.64 598.12 70.64C598.666 70.64 599.153 70.7267 599.58 70.9C600.013 71.0733 600.376 71.3267 600.67 71.66C600.97 71.9867 601.196 72.39 601.35 72.87C601.503 73.35 601.58 73.8967 601.58 74.51V81H599.43V74.51C599.43 73.79 599.273 73.25 598.96 72.89C598.653 72.5233 598.196 72.34 597.59 72.34C597.316 72.34 597.06 72.3867 596.82 72.48C596.58 72.5733 596.37 72.71 596.19 72.89C596.01 73.07 595.866 73.2967 595.76 73.57C595.66 73.8367 595.61 74.15 595.61 74.51V81H593.46V74.51C593.46 73.7633 593.31 73.2167 593.01 72.87C592.71 72.5167 592.27 72.34 591.69 72.34C591.29 72.34 590.92 72.4433 590.58 72.65C590.24 72.85 589.926 73.1267 589.64 73.48V81H587.49ZM610.781 74.75C610.781 74.39 610.728 74.0567 610.621 73.75C610.521 73.4367 610.371 73.1667 610.171 72.94C609.971 72.7067 609.721 72.5267 609.421 72.4C609.128 72.2667 608.788 72.2 608.401 72.2C607.621 72.2 607.008 72.4233 606.561 72.87C606.115 73.3167 605.831 73.9433 605.711 74.75H610.781ZM605.651 76.07C605.678 76.65 605.768 77.1533 605.921 77.58C606.075 78 606.278 78.35 606.531 78.63C606.791 78.91 607.098 79.12 607.451 79.26C607.811 79.3933 608.211 79.46 608.651 79.46C609.071 79.46 609.435 79.4133 609.741 79.32C610.048 79.22 610.315 79.1133 610.541 79C610.768 78.88 610.961 78.7733 611.121 78.68C611.281 78.58 611.428 78.53 611.561 78.53C611.735 78.53 611.868 78.5967 611.961 78.73L612.571 79.52C612.318 79.82 612.031 80.0733 611.711 80.28C611.391 80.4867 611.051 80.6567 610.691 80.79C610.331 80.9167 609.961 81.0067 609.581 81.06C609.201 81.12 608.831 81.15 608.471 81.15C607.765 81.15 607.108 81.0333 606.501 80.8C605.901 80.56 605.378 80.21 604.931 79.75C604.491 79.29 604.145 78.72 603.891 78.04C603.645 77.36 603.521 76.5767 603.521 75.69C603.521 74.9833 603.631 74.3233 603.851 73.71C604.078 73.0967 604.398 72.5633 604.811 72.11C605.231 71.6567 605.738 71.3 606.331 71.04C606.931 70.7733 607.608 70.64 608.361 70.64C608.988 70.64 609.568 70.7433 610.101 70.95C610.635 71.15 611.095 71.4467 611.481 71.84C611.868 72.2333 612.168 72.7167 612.381 73.29C612.601 73.8567 612.711 74.5033 612.711 75.23C612.711 75.5633 612.675 75.7867 612.601 75.9C612.528 76.0133 612.395 76.07 612.201 76.07H605.651ZM616.726 72.15C616.946 71.9233 617.173 71.72 617.406 71.54C617.646 71.3533 617.9 71.1933 618.166 71.06C618.433 70.9267 618.716 70.8233 619.016 70.75C619.316 70.6767 619.643 70.64 619.996 70.64C620.556 70.64 621.046 70.7333 621.466 70.92C621.893 71.1067 622.25 71.37 622.536 71.71C622.83 72.05 623.05 72.46 623.196 72.94C623.343 73.4133 623.416 73.9367 623.416 74.51V81H621.276V74.51C621.276 73.8233 621.116 73.29 620.796 72.91C620.483 72.53 620.003 72.34 619.356 72.34C618.876 72.34 618.43 72.45 618.016 72.67C617.61 72.89 617.226 73.19 616.866 73.57V81H614.716V70.8H616.016C616.31 70.8 616.496 70.9367 616.576 71.21L616.726 72.15ZM629.06 81.16C628.214 81.16 627.56 80.9233 627.1 80.45C626.647 79.97 626.42 79.2967 626.42 78.43V72.49H625.3C625.18 72.49 625.077 72.4533 624.99 72.38C624.904 72.3 624.86 72.1833 624.86 72.03V71.16L626.51 70.92L626.98 67.97C627.014 67.8567 627.07 67.7667 627.15 67.7C627.23 67.6267 627.337 67.59 627.47 67.59H628.57V70.94H631.4V72.49H628.57V78.28C628.57 78.6467 628.66 78.9267 628.84 79.12C629.02 79.3133 629.26 79.41 629.56 79.41C629.727 79.41 629.87 79.39 629.99 79.35C630.11 79.3033 630.214 79.2567 630.3 79.21C630.387 79.1567 630.46 79.11 630.52 79.07C630.587 79.0233 630.65 79 630.71 79C630.83 79 630.927 79.0667 631 79.2L631.64 80.25C631.307 80.5433 630.914 80.77 630.46 80.93C630.007 81.0833 629.54 81.16 629.06 81.16Z" fill="white"/>
<path d="M908.152 73.5C908.685 73.5 909.152 73.4367 909.552 73.31C909.952 73.1767 910.285 72.9933 910.552 72.76C910.818 72.5267 911.018 72.25 911.152 71.93C911.285 71.6033 911.352 71.2433 911.352 70.85C911.352 70.0633 911.092 69.4633 910.572 69.05C910.052 68.6367 909.265 68.43 908.212 68.43H906.312V73.5H908.152ZM914.932 81H912.842C912.428 81 912.128 80.84 911.942 80.52L908.582 75.67C908.468 75.5033 908.345 75.3833 908.212 75.31C908.078 75.2367 907.878 75.2 907.612 75.2H906.312V81H903.972V66.6H908.212C909.158 66.6 909.972 66.6967 910.652 66.89C911.338 67.0833 911.902 67.36 912.342 67.72C912.782 68.0733 913.105 68.5 913.312 69C913.525 69.5 913.632 70.0567 913.632 70.67C913.632 71.17 913.555 71.6367 913.402 72.07C913.255 72.5033 913.038 72.8967 912.752 73.25C912.472 73.6033 912.125 73.91 911.712 74.17C911.298 74.43 910.828 74.6333 910.302 74.78C910.588 74.9533 910.835 75.1967 911.042 75.51L914.932 81ZM922.293 74.75C922.293 74.39 922.24 74.0567 922.133 73.75C922.033 73.4367 921.883 73.1667 921.683 72.94C921.483 72.7067 921.233 72.5267 920.933 72.4C920.64 72.2667 920.3 72.2 919.913 72.2C919.133 72.2 918.52 72.4233 918.073 72.87C917.626 73.3167 917.343 73.9433 917.223 74.75H922.293ZM917.163 76.07C917.19 76.65 917.28 77.1533 917.433 77.58C917.586 78 917.79 78.35 918.043 78.63C918.303 78.91 918.61 79.12 918.963 79.26C919.323 79.3933 919.723 79.46 920.163 79.46C920.583 79.46 920.946 79.4133 921.253 79.32C921.56 79.22 921.826 79.1133 922.053 79C922.28 78.88 922.473 78.7733 922.633 78.68C922.793 78.58 922.94 78.53 923.073 78.53C923.246 78.53 923.38 78.5967 923.473 78.73L924.083 79.52C923.83 79.82 923.543 80.0733 923.223 80.28C922.903 80.4867 922.563 80.6567 922.203 80.79C921.843 80.9167 921.473 81.0067 921.093 81.06C920.713 81.12 920.343 81.15 919.983 81.15C919.276 81.15 918.62 81.0333 918.013 80.8C917.413 80.56 916.89 80.21 916.443 79.75C916.003 79.29 915.656 78.72 915.403 78.04C915.156 77.36 915.033 76.5767 915.033 75.69C915.033 74.9833 915.143 74.3233 915.363 73.71C915.59 73.0967 915.91 72.5633 916.323 72.11C916.743 71.6567 917.25 71.3 917.843 71.04C918.443 70.7733 919.12 70.64 919.873 70.64C920.5 70.64 921.08 70.7433 921.613 70.95C922.146 71.15 922.606 71.4467 922.993 71.84C923.38 72.2333 923.68 72.7167 923.893 73.29C924.113 73.8567 924.223 74.5033 924.223 75.23C924.223 75.5633 924.186 75.7867 924.113 75.9C924.04 76.0133 923.906 76.07 923.713 76.07H917.163ZM932.318 72.65C932.265 72.7433 932.205 72.81 932.138 72.85C932.071 72.89 931.988 72.91 931.888 72.91C931.775 72.91 931.651 72.8767 931.518 72.81C931.385 72.7367 931.228 72.6567 931.048 72.57C930.868 72.4833 930.655 72.4067 930.408 72.34C930.168 72.2667 929.885 72.23 929.558 72.23C929.291 72.23 929.048 72.2633 928.828 72.33C928.615 72.39 928.431 72.48 928.278 72.6C928.131 72.7133 928.018 72.85 927.938 73.01C927.858 73.1633 927.818 73.33 927.818 73.51C927.818 73.75 927.891 73.95 928.038 74.11C928.185 74.27 928.378 74.41 928.618 74.53C928.858 74.6433 929.131 74.7467 929.438 74.84C929.745 74.9333 930.058 75.0333 930.378 75.14C930.698 75.2467 931.011 75.37 931.318 75.51C931.625 75.65 931.898 75.8233 932.138 76.03C932.378 76.23 932.571 76.4767 932.718 76.77C932.865 77.0567 932.938 77.4067 932.938 77.82C932.938 78.3 932.851 78.7433 932.678 79.15C932.505 79.5567 932.251 79.91 931.918 80.21C931.585 80.51 931.168 80.7433 930.668 80.91C930.175 81.0767 929.608 81.16 928.968 81.16C928.615 81.16 928.271 81.1267 927.938 81.06C927.611 81 927.298 80.9167 926.998 80.81C926.705 80.6967 926.428 80.5633 926.168 80.41C925.915 80.2567 925.688 80.09 925.488 79.91L925.988 79.09C926.048 78.99 926.121 78.9133 926.208 78.86C926.301 78.8 926.415 78.77 926.548 78.77C926.688 78.77 926.825 78.8167 926.958 78.91C927.098 78.9967 927.258 79.0933 927.438 79.2C927.625 79.3067 927.848 79.4067 928.108 79.5C928.368 79.5867 928.691 79.63 929.078 79.63C929.398 79.63 929.675 79.5933 929.908 79.52C930.141 79.44 930.335 79.3333 930.488 79.2C930.641 79.0667 930.755 78.9167 930.828 78.75C930.901 78.5767 930.938 78.3933 930.938 78.2C930.938 77.94 930.865 77.7267 930.718 77.56C930.571 77.3933 930.375 77.25 930.128 77.13C929.888 77.01 929.611 76.9033 929.298 76.81C928.991 76.7167 928.678 76.6167 928.358 76.51C928.038 76.4033 927.721 76.28 927.408 76.14C927.101 76 926.825 75.8233 926.578 75.61C926.338 75.39 926.145 75.1267 925.998 74.82C925.851 74.5067 925.778 74.1267 925.778 73.68C925.778 73.2733 925.858 72.8867 926.018 72.52C926.185 72.1533 926.425 71.83 926.738 71.55C927.058 71.27 927.448 71.05 927.908 70.89C928.375 70.7233 928.911 70.64 929.518 70.64C930.205 70.64 930.828 70.75 931.388 70.97C931.948 71.19 932.418 71.49 932.798 71.87L932.318 72.65ZM943.558 70.8V81H942.258C941.972 81 941.788 80.8633 941.708 80.59L941.548 79.64C941.335 79.8667 941.108 80.0733 940.868 80.26C940.635 80.4467 940.385 80.6067 940.118 80.74C939.852 80.8733 939.565 80.9767 939.258 81.05C938.958 81.1233 938.635 81.16 938.288 81.16C937.728 81.16 937.235 81.0667 936.808 80.88C936.382 80.6933 936.022 80.43 935.728 80.09C935.442 79.75 935.225 79.3433 935.078 78.87C934.932 78.39 934.858 77.8633 934.858 77.29V70.8H937.008V77.29C937.008 77.9767 937.165 78.51 937.478 78.89C937.798 79.27 938.282 79.46 938.928 79.46C939.402 79.46 939.842 79.3533 940.248 79.14C940.662 78.92 941.048 78.62 941.408 78.24V70.8H943.558ZM948.359 66.2V81H946.209V66.2H948.359ZM954.283 81.16C953.436 81.16 952.783 80.9233 952.323 80.45C951.87 79.97 951.643 79.2967 951.643 78.43V72.49H950.523C950.403 72.49 950.3 72.4533 950.213 72.38C950.126 72.3 950.083 72.1833 950.083 72.03V71.16L951.733 70.92L952.203 67.97C952.236 67.8567 952.293 67.7667 952.373 67.7C952.453 67.6267 952.56 67.59 952.693 67.59H953.793V70.94H956.623V72.49H953.793V78.28C953.793 78.6467 953.883 78.9267 954.063 79.12C954.243 79.3133 954.483 79.41 954.783 79.41C954.95 79.41 955.093 79.39 955.213 79.35C955.333 79.3033 955.436 79.2567 955.523 79.21C955.61 79.1567 955.683 79.11 955.743 79.07C955.81 79.0233 955.873 79 955.933 79C956.053 79 956.15 79.0667 956.223 79.2L956.863 80.25C956.53 80.5433 956.136 80.77 955.683 80.93C955.23 81.0833 954.763 81.16 954.283 81.16ZM964.408 72.65C964.354 72.7433 964.294 72.81 964.228 72.85C964.161 72.89 964.078 72.91 963.978 72.91C963.864 72.91 963.741 72.8767 963.608 72.81C963.474 72.7367 963.318 72.6567 963.138 72.57C962.958 72.4833 962.744 72.4067 962.498 72.34C962.258 72.2667 961.974 72.23 961.648 72.23C961.381 72.23 961.138 72.2633 960.918 72.33C960.704 72.39 960.521 72.48 960.368 72.6C960.221 72.7133 960.108 72.85 960.028 73.01C959.948 73.1633 959.908 73.33 959.908 73.51C959.908 73.75 959.981 73.95 960.128 74.11C960.274 74.27 960.468 74.41 960.708 74.53C960.948 74.6433 961.221 74.7467 961.528 74.84C961.834 74.9333 962.148 75.0333 962.468 75.14C962.788 75.2467 963.101 75.37 963.408 75.51C963.714 75.65 963.988 75.8233 964.228 76.03C964.468 76.23 964.661 76.4767 964.808 76.77C964.954 77.0567 965.028 77.4067 965.028 77.82C965.028 78.3 964.941 78.7433 964.768 79.15C964.594 79.5567 964.341 79.91 964.008 80.21C963.674 80.51 963.258 80.7433 962.758 80.91C962.264 81.0767 961.698 81.16 961.058 81.16C960.704 81.16 960.361 81.1267 960.028 81.06C959.701 81 959.388 80.9167 959.088 80.81C958.794 80.6967 958.518 80.5633 958.258 80.41C958.004 80.2567 957.778 80.09 957.578 79.91L958.078 79.09C958.138 78.99 958.211 78.9133 958.298 78.86C958.391 78.8 958.504 78.77 958.638 78.77C958.778 78.77 958.914 78.8167 959.048 78.91C959.188 78.9967 959.348 79.0933 959.528 79.2C959.714 79.3067 959.938 79.4067 960.198 79.5C960.458 79.5867 960.781 79.63 961.168 79.63C961.488 79.63 961.764 79.5933 961.998 79.52C962.231 79.44 962.424 79.3333 962.578 79.2C962.731 79.0667 962.844 78.9167 962.918 78.75C962.991 78.5767 963.028 78.3933 963.028 78.2C963.028 77.94 962.954 77.7267 962.808 77.56C962.661 77.3933 962.464 77.25 962.218 77.13C961.978 77.01 961.701 76.9033 961.388 76.81C961.081 76.7167 960.768 76.6167 960.448 76.51C960.128 76.4033 959.811 76.28 959.498 76.14C959.191 76 958.914 75.8233 958.668 75.61C958.428 75.39 958.234 75.1267 958.088 74.82C957.941 74.5067 957.868 74.1267 957.868 73.68C957.868 73.2733 957.948 72.8867 958.108 72.52C958.274 72.1533 958.514 71.83 958.828 71.55C959.148 71.27 959.538 71.05 959.998 70.89C960.464 70.7233 961.001 70.64 961.608 70.64C962.294 70.64 962.918 70.75 963.478 70.97C964.038 71.19 964.508 71.49 964.888 71.87L964.408 72.65Z" fill="white"/>
<rect x="62" y="210" width="298" height="56" rx="28" fill="#F5F5F5"/>
<path d="M85.654 245H83.539V232.04H85.654V245ZM99.4525 232.04V245H98.3815C98.2195 245 98.0815 244.973 97.9675 244.919C97.8535 244.859 97.7455 244.763 97.6435 244.631L90.5245 235.487C90.5425 235.661 90.5545 235.835 90.5605 236.009C90.5725 236.177 90.5785 236.333 90.5785 236.477V245H88.7245V232.04H89.8225C89.9125 232.04 89.9875 232.046 90.0475 232.058C90.1135 232.064 90.1735 232.079 90.2275 232.103C90.2815 232.127 90.3325 232.163 90.3805 232.211C90.4285 232.259 90.4795 232.319 90.5335 232.391L97.6615 241.544C97.6435 241.358 97.6285 241.175 97.6165 240.995C97.6105 240.815 97.6075 240.647 97.6075 240.491V232.04H99.4525ZM111.46 233.795H107.419V245H105.322V233.795H101.272V232.04H111.46V233.795ZM117.026 238.25C117.506 238.25 117.926 238.193 118.286 238.079C118.646 237.959 118.946 237.794 119.186 237.584C119.426 237.374 119.606 237.125 119.726 236.837C119.846 236.543 119.906 236.219 119.906 235.865C119.906 235.157 119.672 234.617 119.204 234.245C118.736 233.873 118.028 233.687 117.08 233.687H115.37V238.25H117.026ZM123.128 245H121.247C120.875 245 120.605 244.856 120.437 244.568L117.413 240.203C117.311 240.053 117.2 239.945 117.08 239.879C116.96 239.813 116.78 239.78 116.54 239.78H115.37V245H113.264V232.04H117.08C117.932 232.04 118.664 232.127 119.276 232.301C119.894 232.475 120.401 232.724 120.797 233.048C121.193 233.366 121.484 233.75 121.67 234.2C121.862 234.65 121.958 235.151 121.958 235.703C121.958 236.153 121.889 236.573 121.751 236.963C121.619 237.353 121.424 237.707 121.166 238.025C120.914 238.343 120.602 238.619 120.23 238.853C119.858 239.087 119.435 239.27 118.961 239.402C119.219 239.558 119.441 239.777 119.627 240.059L123.128 245ZM136.708 238.52C136.708 239.48 136.552 240.365 136.24 241.175C135.928 241.985 135.487 242.684 134.917 243.272C134.353 243.854 133.672 244.31 132.874 244.64C132.082 244.97 131.2 245.135 130.228 245.135C129.262 245.135 128.38 244.97 127.582 244.64C126.79 244.31 126.109 243.854 125.539 243.272C124.969 242.684 124.528 241.985 124.216 241.175C123.904 240.365 123.748 239.48 123.748 238.52C123.748 237.56 123.904 236.675 124.216 235.865C124.528 235.055 124.969 234.356 125.539 233.768C126.109 233.18 126.79 232.721 127.582 232.391C128.38 232.061 129.262 231.896 130.228 231.896C131.2 231.896 132.082 232.061 132.874 232.391C133.672 232.721 134.353 233.18 134.917 233.768C135.487 234.356 135.928 235.055 136.24 235.865C136.552 236.675 136.708 237.56 136.708 238.52ZM134.557 238.52C134.557 237.776 134.455 237.107 134.251 236.513C134.053 235.919 133.765 235.415 133.387 235.001C133.015 234.587 132.562 234.269 132.028 234.047C131.494 233.825 130.894 233.714 130.228 233.714C129.568 233.714 128.971 233.825 128.437 234.047C127.903 234.269 127.447 234.587 127.069 235.001C126.691 235.415 126.4 235.919 126.196 236.513C125.992 237.107 125.89 237.776 125.89 238.52C125.89 239.27 125.992 239.942 126.196 240.536C126.4 241.13 126.691 241.634 127.069 242.048C127.447 242.456 127.903 242.771 128.437 242.993C128.971 243.209 129.568 243.317 130.228 243.317C130.894 243.317 131.494 243.209 132.028 242.993C132.562 242.771 133.015 242.456 133.387 242.048C133.765 241.634 134.053 241.13 134.251 240.536C134.455 239.942 134.557 239.27 134.557 238.52ZM152.498 242.111C152.612 242.111 152.711 242.156 152.795 242.246L153.632 243.155C153.104 243.791 152.456 244.283 151.688 244.631C150.92 244.973 150.002 245.144 148.934 245.144C147.986 245.144 147.128 244.982 146.36 244.658C145.598 244.328 144.947 243.872 144.407 243.29C143.867 242.702 143.45 242.003 143.156 241.193C142.868 240.383 142.724 239.492 142.724 238.52C142.724 237.548 142.877 236.657 143.183 235.847C143.495 235.031 143.93 234.332 144.488 233.75C145.052 233.162 145.724 232.706 146.504 232.382C147.29 232.058 148.154 231.896 149.096 231.896C150.032 231.896 150.857 232.049 151.571 232.355C152.291 232.655 152.915 233.057 153.443 233.561L152.75 234.542C152.702 234.608 152.645 234.665 152.579 234.713C152.513 234.761 152.423 234.785 152.309 234.785C152.189 234.785 152.051 234.731 151.895 234.623C151.745 234.509 151.55 234.386 151.31 234.254C151.076 234.116 150.779 233.993 150.419 233.885C150.065 233.771 149.621 233.714 149.087 233.714C148.469 233.714 147.902 233.822 147.386 234.038C146.87 234.254 146.426 234.569 146.054 234.983C145.682 235.397 145.391 235.901 145.181 236.495C144.977 237.089 144.875 237.764 144.875 238.52C144.875 239.282 144.983 239.963 145.199 240.563C145.415 241.157 145.712 241.661 146.09 242.075C146.468 242.483 146.912 242.795 147.422 243.011C147.932 243.227 148.481 243.335 149.069 243.335C149.429 243.335 149.75 243.317 150.032 243.281C150.32 243.239 150.584 243.176 150.824 243.092C151.064 243.002 151.289 242.891 151.499 242.759C151.715 242.627 151.928 242.465 152.138 242.273C152.258 242.165 152.378 242.111 152.498 242.111ZM162.309 240.14L160.527 235.406C160.383 235.04 160.236 234.575 160.086 234.011C160.02 234.293 159.948 234.554 159.87 234.794C159.792 235.028 159.72 235.235 159.654 235.415L157.872 240.14H162.309ZM166.296 245H164.667C164.481 245 164.331 244.955 164.217 244.865C164.103 244.769 164.016 244.652 163.956 244.514L162.876 241.652H157.296L156.216 244.514C156.168 244.634 156.084 244.745 155.964 244.847C155.844 244.949 155.694 245 155.514 245H153.885L159.024 232.04H161.157L166.296 245ZM175.297 243.236V245H167.809V232.04H169.915V243.236H175.297ZM184.595 243.236V245H177.107V232.04H179.213V243.236H184.595Z" fill="#101828"/>
<rect x="312" y="218" width="40" height="40" rx="20" fill="#101828"/>
<path d="M324 240V237C324 234.878 324.843 232.843 326.343 231.343C327.843 229.843 329.878 229 332 229C334.122 229 336.157 229.843 337.657 231.343C339.157 232.843 340 234.878 340 237V240M324 240C324 239.47 324.211 238.961 324.586 238.586C324.961 238.211 325.47 238 326 238H327C327.53 238 328.039 238.211 328.414 238.586C328.789 238.961 329 239.47 329 240V243C329 243.53 328.789 244.039 328.414 244.414C328.039 244.789 327.53 245 327 245H326C325.47 245 324.961 244.789 324.586 244.414C324.211 244.039 324 243.53 324 243V240ZM340 240C340 239.47 339.789 238.961 339.414 238.586C339.039 238.211 338.53 238 338 238H337C336.47 238 335.961 238.211 335.586 238.586C335.211 238.961 335 239.47 335 240V243C335 243.53 335.211 244.039 335.586 244.414C335.961 244.789 336.47 245 337 245H338M340 240V243C340 243.53 339.789 244.039 339.414 244.414C339.039 244.789 338.53 245 338 245M338 245C338 246.657 335.314 248 332 248" stroke="white" stroke-width="1.5" stroke-linecap="round" stroke-linejoin="round"/>
<rect x="325" y="498" width="437" height="56" rx="28" fill="#F5F5F5"/>
<path d="M353.316 522.254C353.25 522.362 353.181 522.443 353.109 522.497C353.037 522.545 352.947 522.569 352.839 522.569C352.725 522.569 352.596 522.521 352.452 522.425C352.314 522.329 352.14 522.224 351.93 522.11C351.726 521.99 351.483 521.882 351.201 521.786C350.919 521.684 350.583 521.633 350.193 521.633C349.833 521.633 349.515 521.678 349.239 521.768C348.969 521.858 348.741 521.984 348.555 522.146C348.369 522.308 348.228 522.5 348.132 522.722C348.042 522.938 347.997 523.175 347.997 523.433C347.997 523.763 348.084 524.039 348.258 524.261C348.432 524.477 348.66 524.663 348.942 524.819C349.23 524.975 349.557 525.113 349.923 525.233C350.289 525.347 350.661 525.47 351.039 525.602C351.423 525.734 351.798 525.884 352.164 526.052C352.53 526.22 352.854 526.433 353.136 526.691C353.424 526.949 353.655 527.264 353.829 527.636C354.003 528.008 354.09 528.461 354.09 528.995C354.09 529.571 353.991 530.111 353.793 530.615C353.595 531.119 353.307 531.56 352.929 531.938C352.557 532.31 352.095 532.604 351.543 532.82C350.997 533.036 350.373 533.144 349.671 533.144C349.257 533.144 348.852 533.102 348.456 533.018C348.066 532.94 347.691 532.829 347.331 532.685C346.977 532.535 346.644 532.355 346.332 532.145C346.02 531.935 345.741 531.701 345.495 531.443L346.107 530.435C346.161 530.351 346.23 530.285 346.314 530.237C346.398 530.189 346.491 530.165 346.593 530.165C346.731 530.165 346.884 530.231 347.052 530.363C347.22 530.489 347.421 530.63 347.655 530.786C347.895 530.936 348.183 531.077 348.519 531.209C348.855 531.335 349.257 531.398 349.725 531.398C350.487 531.398 351.075 531.212 351.489 530.84C351.909 530.468 352.119 529.955 352.119 529.301C352.119 528.935 352.032 528.638 351.858 528.41C351.684 528.176 351.453 527.981 351.165 527.825C350.883 527.669 350.559 527.537 350.193 527.429C349.827 527.321 349.455 527.207 349.077 527.087C348.699 526.961 348.327 526.817 347.961 526.655C347.595 526.487 347.268 526.271 346.98 526.007C346.698 525.737 346.47 525.407 346.296 525.017C346.122 524.621 346.035 524.129 346.035 523.541C346.035 523.073 346.125 522.62 346.305 522.182C346.491 521.744 346.758 521.357 347.106 521.021C347.46 520.679 347.895 520.406 348.411 520.202C348.927 519.998 349.515 519.896 350.175 519.896C350.919 519.896 351.6 520.013 352.218 520.247C352.842 520.481 353.379 520.814 353.829 521.246L353.316 522.254ZM365.284 521.795H361.243V533H359.146V521.795H355.096V520.04H365.284V521.795ZM370.85 526.25C371.33 526.25 371.75 526.193 372.11 526.079C372.47 525.959 372.77 525.794 373.01 525.584C373.25 525.374 373.43 525.125 373.55 524.837C373.67 524.543 373.73 524.219 373.73 523.865C373.73 523.157 373.496 522.617 373.028 522.245C372.56 521.873 371.852 521.687 370.904 521.687H369.194V526.25H370.85ZM376.952 533H375.071C374.699 533 374.429 532.856 374.261 532.568L371.237 528.203C371.135 528.053 371.024 527.945 370.904 527.879C370.784 527.813 370.604 527.78 370.364 527.78H369.194V533H367.088V520.04H370.904C371.756 520.04 372.488 520.127 373.1 520.301C373.718 520.475 374.225 520.724 374.621 521.048C375.017 521.366 375.308 521.75 375.494 522.2C375.686 522.65 375.782 523.151 375.782 523.703C375.782 524.153 375.713 524.573 375.575 524.963C375.443 525.353 375.248 525.707 374.99 526.025C374.738 526.343 374.426 526.619 374.054 526.853C373.682 527.087 373.259 527.27 372.785 527.402C373.043 527.558 373.265 527.777 373.451 528.059L376.952 533ZM385.372 528.14L383.59 523.406C383.446 523.04 383.299 522.575 383.149 522.011C383.083 522.293 383.011 522.554 382.933 522.794C382.855 523.028 382.783 523.235 382.717 523.415L380.935 528.14H385.372ZM389.359 533H387.73C387.544 533 387.394 532.955 387.28 532.865C387.166 532.769 387.079 532.652 387.019 532.514L385.939 529.652H380.359L379.279 532.514C379.231 532.634 379.147 532.745 379.027 532.847C378.907 532.949 378.757 533 378.577 533H376.948L382.087 520.04H384.22L389.359 533ZM398.524 521.795H394.483V533H392.386V521.795H388.336V520.04H398.524V521.795ZM408.419 531.299L408.41 533H400.328V520.04H408.41V521.741H402.443V525.647H407.213V527.294H402.443V531.299H408.419ZM421.029 526.619V531.749C419.739 532.679 418.239 533.144 416.529 533.144C415.479 533.144 414.528 532.982 413.676 532.658C412.83 532.328 412.107 531.872 411.507 531.29C410.907 530.702 410.445 530.003 410.121 529.193C409.797 528.383 409.635 527.492 409.635 526.52C409.635 525.542 409.791 524.648 410.103 523.838C410.415 523.022 410.862 522.323 411.444 521.741C412.026 521.153 412.728 520.7 413.55 520.382C414.372 520.058 415.296 519.896 416.322 519.896C416.844 519.896 417.327 519.938 417.771 520.022C418.221 520.1 418.638 520.211 419.022 520.355C419.406 520.499 419.76 520.673 420.084 520.877C420.408 521.081 420.705 521.309 420.975 521.561L420.372 522.524C420.276 522.674 420.153 522.767 420.003 522.803C419.853 522.839 419.691 522.803 419.517 522.695C419.343 522.593 419.157 522.485 418.959 522.371C418.767 522.257 418.545 522.152 418.293 522.056C418.041 521.954 417.75 521.873 417.42 521.813C417.09 521.747 416.7 521.714 416.25 521.714C415.566 521.714 414.948 521.828 414.396 522.056C413.85 522.278 413.382 522.599 412.992 523.019C412.602 523.433 412.302 523.937 412.092 524.531C411.882 525.125 411.777 525.788 411.777 526.52C411.777 527.294 411.888 527.987 412.11 528.599C412.332 529.205 412.647 529.721 413.055 530.147C413.463 530.567 413.955 530.888 414.531 531.11C415.113 531.332 415.761 531.443 416.475 531.443C417.009 531.443 417.483 531.386 417.897 531.272C418.317 531.158 418.728 530.999 419.13 530.795V528.221H417.321C417.183 528.221 417.075 528.185 416.997 528.113C416.919 528.035 416.88 527.936 416.88 527.816V526.619H421.029ZM428.435 527.924V533H426.338V527.924L421.604 520.04H423.449C423.635 520.04 423.782 520.085 423.89 520.175C423.998 520.265 424.088 520.379 424.16 520.517L426.815 525.161C426.935 525.395 427.043 525.617 427.139 525.827C427.241 526.037 427.331 526.244 427.409 526.448C427.475 526.238 427.556 526.031 427.652 525.827C427.748 525.617 427.856 525.395 427.976 525.161L430.613 520.517C430.673 520.397 430.76 520.289 430.874 520.193C430.988 520.091 431.135 520.04 431.315 520.04H433.169L428.435 527.924Z" fill="#101828"/>
<rect x="714" y="506" width="40" height="40" rx="20" fill="#101828"/>
<path d="M731 519H729C728.47 519 727.961 519.211 727.586 519.586C727.211 519.961 727 520.47 727 521V533C727 533.53 727.211 534.039 727.586 534.414C727.961 534.789 728.47 535 729 535H739C739.53 535 740.039 534.789 740.414 534.414C740.789 534.039 741 533.53 741 533V521C741 520.47 740.789 519.961 740.414 519.586C740.039 519.211 739.53 519 739 519H737M731 519C731 518.47 731.211 517.961 731.586 517.586C731.961 517.211 732.47 517 733 517H735C735.53 517 736.039 517.211 736.414 517.586C736.789 517.961 737 518.47 737 519M731 519C731 519.53 731.211 520.039 731.586 520.414C731.961 520.789 732.47 521 733 521H735C735.53 521 736.039 520.789 736.414 520.414C736.789 520.039 737 519.53 737 519M731 526H731.01M735 526H737M731 530H731.01M735 530H737" stroke="white" stroke-width="1.5" stroke-linecap="round" stroke-linejoin="round"/>
<rect x="149" y="306" width="211" height="56" rx="28" fill="#F5F5F5"/>
<path d="M177.397 336.14L175.615 331.406C175.471 331.04 175.324 330.575 175.174 330.011C175.108 330.293 175.036 330.554 174.958 330.794C174.88 331.028 174.808 331.235 174.742 331.415L172.96 336.14H177.397ZM181.384 341H179.755C179.569 341 179.419 340.955 179.305 340.865C179.191 340.769 179.104 340.652 179.044 340.514L177.964 337.652H172.384L171.304 340.514C171.256 340.634 171.172 340.745 171.052 340.847C170.932 340.949 170.782 341 170.602 341H168.973L174.112 328.04H176.245L181.384 341ZM187.71 339.299C188.208 339.299 188.652 339.215 189.042 339.047C189.438 338.879 189.771 338.645 190.041 338.345C190.317 338.045 190.527 337.685 190.671 337.265C190.815 336.839 190.887 336.368 190.887 335.852V328.04H192.984V335.852C192.984 336.614 192.861 337.319 192.615 337.967C192.375 338.615 192.027 339.176 191.571 339.65C191.115 340.118 190.56 340.487 189.906 340.757C189.258 341.021 188.526 341.153 187.71 341.153C186.894 341.153 186.159 341.021 185.505 340.757C184.857 340.487 184.305 340.118 183.849 339.65C183.393 339.176 183.042 338.615 182.796 337.967C182.556 337.319 182.436 336.614 182.436 335.852V328.04H184.542V335.843C184.542 336.359 184.614 336.83 184.758 337.256C184.902 337.676 185.109 338.039 185.379 338.345C185.649 338.645 185.979 338.879 186.369 339.047C186.765 339.215 187.212 339.299 187.71 339.299ZM207.28 334.52C207.28 335.48 207.124 336.359 206.812 337.157C206.5 337.949 206.059 338.63 205.489 339.2C204.925 339.77 204.244 340.214 203.446 340.532C202.654 340.844 201.772 341 200.8 341H195.904V328.04H200.8C201.772 328.04 202.654 328.199 203.446 328.517C204.244 328.829 204.925 329.27 205.489 329.84C206.059 330.41 206.5 331.094 206.812 331.892C207.124 332.684 207.28 333.56 207.28 334.52ZM205.129 334.52C205.129 333.776 205.027 333.107 204.823 332.513C204.625 331.919 204.337 331.418 203.959 331.01C203.587 330.602 203.134 330.29 202.6 330.074C202.066 329.852 201.466 329.741 200.8 329.741H198.019V339.299H200.8C201.466 339.299 202.066 339.191 202.6 338.975C203.134 338.759 203.587 338.447 203.959 338.039C204.337 337.625 204.625 337.124 204.823 336.536C205.027 335.942 205.129 335.27 205.129 334.52ZM211.713 341H209.598V328.04H211.713V341ZM223.702 329.795H219.661V341H217.564V329.795H213.514V328.04H223.702V329.795Z" fill="#101828"/>
<rect x="312" y="314" width="40" height="40" rx="20" fill="#101828"/>
<path d="M341 343L335 337M323 332C323 332.919 323.181 333.83 323.533 334.679C323.885 335.528 324.4 336.3 325.05 336.95C325.7 337.6 326.472 338.115 327.321 338.467C328.17 338.819 329.081 339 330 339C330.919 339 331.83 338.819 332.679 338.467C333.528 338.115 334.3 337.6 334.95 336.95C335.6 336.3 336.115 335.528 336.467 334.679C336.819 333.83 337 332.919 337 332C337 331.081 336.819 330.17 336.467 329.321C336.115 328.472 335.6 327.7 334.95 327.05C334.3 326.4 333.528 325.885 332.679 325.533C331.83 325.181 330.919 325 330 325C329.081 325 328.17 325.181 327.321 325.533C326.472 325.885 325.7 326.4 325.05 327.05C324.4 327.7 323.885 328.472 323.533 329.321C323.181 330.17 323 331.081 323 332Z" stroke="white" stroke-width="1.5" stroke-linecap="round" stroke-linejoin="round"/>
<rect x="234" y="402" width="211" height="56" rx="28" fill="#F5F5F5"/>
<path d="M262.397 432.14L260.615 427.406C260.471 427.04 260.324 426.575 260.174 426.011C260.108 426.293 260.036 426.554 259.958 426.794C259.88 427.028 259.808 427.235 259.742 427.415L257.96 432.14H262.397ZM266.384 437H264.755C264.569 437 264.419 436.955 264.305 436.865C264.191 436.769 264.104 436.652 264.044 436.514L262.964 433.652H257.384L256.304 436.514C256.256 436.634 256.172 436.745 256.052 436.847C255.932 436.949 255.782 437 255.602 437H253.973L259.112 424.04H261.245L266.384 437ZM278.624 424.04V437H277.553C277.391 437 277.253 436.973 277.139 436.919C277.025 436.859 276.917 436.763 276.815 436.631L269.696 427.487C269.714 427.661 269.726 427.835 269.732 428.009C269.744 428.177 269.75 428.333 269.75 428.477V437H267.896V424.04H268.994C269.084 424.04 269.159 424.046 269.219 424.058C269.285 424.064 269.345 424.079 269.399 424.103C269.453 424.127 269.504 424.163 269.552 424.211C269.6 424.259 269.651 424.319 269.705 424.391L276.833 433.544C276.815 433.358 276.8 433.175 276.788 432.995C276.782 432.815 276.779 432.647 276.779 432.491V424.04H278.624ZM288.571 432.14L286.789 427.406C286.645 427.04 286.498 426.575 286.348 426.011C286.282 426.293 286.21 426.554 286.132 426.794C286.054 427.028 285.982 427.235 285.916 427.415L284.134 432.14H288.571ZM292.558 437H290.929C290.743 437 290.593 436.955 290.479 436.865C290.365 436.769 290.278 436.652 290.218 436.514L289.138 433.652H283.558L282.478 436.514C282.43 436.634 282.346 436.745 282.226 436.847C282.106 436.949 281.956 437 281.776 437H280.147L285.286 424.04H287.419L292.558 437ZM301.558 435.236V437H294.07V424.04H296.176V435.236H301.558ZM306.902 431.924V437H304.805V431.924L300.071 424.04H301.916C302.102 424.04 302.249 424.085 302.357 424.175C302.465 424.265 302.555 424.379 302.627 424.517L305.282 429.161C305.402 429.395 305.51 429.617 305.606 429.827C305.708 430.037 305.798 430.244 305.876 430.448C305.942 430.238 306.023 430.031 306.119 429.827C306.215 429.617 306.323 429.395 306.443 429.161L309.08 424.517C309.14 424.397 309.227 424.289 309.341 424.193C309.455 424.091 309.602 424.04 309.782 424.04H311.636L306.902 431.924ZM321.927 424.823C321.927 424.943 321.906 425.06 321.864 425.174C321.828 425.288 321.777 425.396 321.711 425.498L314.754 435.299H321.792V437H312V436.172C312 436.058 312.018 435.953 312.054 435.857C312.09 435.755 312.138 435.659 312.198 435.569L319.182 425.741H312.387V424.04H321.927V424.823ZM332.079 435.299L332.07 437H323.988V424.04H332.07V425.741H326.103V429.647H330.873V431.294H326.103V435.299H332.079Z" fill="#101828"/>
<rect x="397" y="410" width="40" height="40" rx="20" fill="#101828"/>
<path d="M412 438H422M414 434V438M420 434V438M413 430L416 427L418 429L421 426M408 423C408 422.735 408.105 422.48 408.293 422.293C408.48 422.105 408.735 422 409 422H425C425.265 422 425.52 422.105 425.707 422.293C425.895 422.48 426 422.735 426 423V433C426 433.265 425.895 433.52 425.707 433.707C425.52 433.895 425.265 434 425 434H409C408.735 434 408.48 433.895 408.293 433.707C408.105 433.52 408 433.265 408 433V423Z" stroke="white" stroke-width="1.5" stroke-linecap="round" stroke-linejoin="round"/>
<rect x="761" y="594" width="263" height="56" rx="28" fill="#F5F5F5"/>
<path d="M786.301 622.25C786.781 622.25 787.201 622.193 787.561 622.079C787.921 621.959 788.221 621.794 788.461 621.584C788.701 621.374 788.881 621.125 789.001 620.837C789.121 620.543 789.181 620.219 789.181 619.865C789.181 619.157 788.947 618.617 788.479 618.245C788.011 617.873 787.303 617.687 786.355 617.687H784.645V622.25H786.301ZM792.403 629H790.522C790.15 629 789.88 628.856 789.712 628.568L786.688 624.203C786.586 624.053 786.475 623.945 786.355 623.879C786.235 623.813 786.055 623.78 785.815 623.78H784.645V629H782.539V616.04H786.355C787.207 616.04 787.939 616.127 788.551 616.301C789.169 616.475 789.676 616.724 790.072 617.048C790.468 617.366 790.759 617.75 790.945 618.2C791.137 618.65 791.233 619.151 791.233 619.703C791.233 620.153 791.164 620.573 791.026 620.963C790.894 621.353 790.699 621.707 790.441 622.025C790.189 622.343 789.877 622.619 789.505 622.853C789.133 623.087 788.71 623.27 788.236 623.402C788.494 623.558 788.716 623.777 788.902 624.059L792.403 629ZM802.056 627.299L802.047 629H793.965V616.04H802.047V617.741H796.08V621.647H800.85V623.294H796.08V627.299H802.056ZM811.113 618.254C811.047 618.362 810.978 618.443 810.906 618.497C810.834 618.545 810.744 618.569 810.636 618.569C810.522 618.569 810.393 618.521 810.249 618.425C810.111 618.329 809.937 618.224 809.727 618.11C809.523 617.99 809.28 617.882 808.998 617.786C808.716 617.684 808.38 617.633 807.99 617.633C807.63 617.633 807.312 617.678 807.036 617.768C806.766 617.858 806.538 617.984 806.352 618.146C806.166 618.308 806.025 618.5 805.929 618.722C805.839 618.938 805.794 619.175 805.794 619.433C805.794 619.763 805.881 620.039 806.055 620.261C806.229 620.477 806.457 620.663 806.739 620.819C807.027 620.975 807.354 621.113 807.72 621.233C808.086 621.347 808.458 621.47 808.836 621.602C809.22 621.734 809.595 621.884 809.961 622.052C810.327 622.22 810.651 622.433 810.933 622.691C811.221 622.949 811.452 623.264 811.626 623.636C811.8 624.008 811.887 624.461 811.887 624.995C811.887 625.571 811.788 626.111 811.59 626.615C811.392 627.119 811.104 627.56 810.726 627.938C810.354 628.31 809.892 628.604 809.34 628.82C808.794 629.036 808.17 629.144 807.468 629.144C807.054 629.144 806.649 629.102 806.253 629.018C805.863 628.94 805.488 628.829 805.128 628.685C804.774 628.535 804.441 628.355 804.129 628.145C803.817 627.935 803.538 627.701 803.292 627.443L803.904 626.435C803.958 626.351 804.027 626.285 804.111 626.237C804.195 626.189 804.288 626.165 804.39 626.165C804.528 626.165 804.681 626.231 804.849 626.363C805.017 626.489 805.218 626.63 805.452 626.786C805.692 626.936 805.98 627.077 806.316 627.209C806.652 627.335 807.054 627.398 807.522 627.398C808.284 627.398 808.872 627.212 809.286 626.84C809.706 626.468 809.916 625.955 809.916 625.301C809.916 624.935 809.829 624.638 809.655 624.41C809.481 624.176 809.25 623.981 808.962 623.825C808.68 623.669 808.356 623.537 807.99 623.429C807.624 623.321 807.252 623.207 806.874 623.087C806.496 622.961 806.124 622.817 805.758 622.655C805.392 622.487 805.065 622.271 804.777 622.007C804.495 621.737 804.267 621.407 804.093 621.017C803.919 620.621 803.832 620.129 803.832 619.541C803.832 619.073 803.922 618.62 804.102 618.182C804.288 617.744 804.555 617.357 804.903 617.021C805.257 616.679 805.692 616.406 806.208 616.202C806.724 615.998 807.312 615.896 807.972 615.896C808.716 615.896 809.397 616.013 810.015 616.247C810.639 616.481 811.176 616.814 811.626 617.246L811.113 618.254ZM819.274 627.299C819.772 627.299 820.216 627.215 820.606 627.047C821.002 626.879 821.335 626.645 821.605 626.345C821.881 626.045 822.091 625.685 822.235 625.265C822.379 624.839 822.451 624.368 822.451 623.852V616.04H824.548V623.852C824.548 624.614 824.425 625.319 824.179 625.967C823.939 626.615 823.591 627.176 823.135 627.65C822.679 628.118 822.124 628.487 821.47 628.757C820.822 629.021 820.09 629.153 819.274 629.153C818.458 629.153 817.723 629.021 817.069 628.757C816.421 628.487 815.869 628.118 815.413 627.65C814.957 627.176 814.606 626.615 814.36 625.967C814.12 625.319 814 624.614 814 623.852V616.04H816.106V623.843C816.106 624.359 816.178 624.83 816.322 625.256C816.466 625.676 816.673 626.039 816.943 626.345C817.213 626.645 817.543 626.879 817.933 627.047C818.329 627.215 818.776 627.299 819.274 627.299ZM834.957 627.236V629H827.469V616.04H829.575V627.236H834.957ZM844.034 617.795H839.993V629H837.896V617.795H833.846V616.04H844.034V617.795ZM852.58 618.254C852.514 618.362 852.445 618.443 852.373 618.497C852.301 618.545 852.211 618.569 852.103 618.569C851.989 618.569 851.86 618.521 851.716 618.425C851.578 618.329 851.404 618.224 851.194 618.11C850.99 617.99 850.747 617.882 850.465 617.786C850.183 617.684 849.847 617.633 849.457 617.633C849.097 617.633 848.779 617.678 848.503 617.768C848.233 617.858 848.005 617.984 847.819 618.146C847.633 618.308 847.492 618.5 847.396 618.722C847.306 618.938 847.261 619.175 847.261 619.433C847.261 619.763 847.348 620.039 847.522 620.261C847.696 620.477 847.924 620.663 848.206 620.819C848.494 620.975 848.821 621.113 849.187 621.233C849.553 621.347 849.925 621.47 850.303 621.602C850.687 621.734 851.062 621.884 851.428 622.052C851.794 622.22 852.118 622.433 852.4 622.691C852.688 622.949 852.919 623.264 853.093 623.636C853.267 624.008 853.354 624.461 853.354 624.995C853.354 625.571 853.255 626.111 853.057 626.615C852.859 627.119 852.571 627.56 852.193 627.938C851.821 628.31 851.359 628.604 850.807 628.82C850.261 629.036 849.637 629.144 848.935 629.144C848.521 629.144 848.116 629.102 847.72 629.018C847.33 628.94 846.955 628.829 846.595 628.685C846.241 628.535 845.908 628.355 845.596 628.145C845.284 627.935 845.005 627.701 844.759 627.443L845.371 626.435C845.425 626.351 845.494 626.285 845.578 626.237C845.662 626.189 845.755 626.165 845.857 626.165C845.995 626.165 846.148 626.231 846.316 626.363C846.484 626.489 846.685 626.63 846.919 626.786C847.159 626.936 847.447 627.077 847.783 627.209C848.119 627.335 848.521 627.398 848.989 627.398C849.751 627.398 850.339 627.212 850.753 626.84C851.173 626.468 851.383 625.955 851.383 625.301C851.383 624.935 851.296 624.638 851.122 624.41C850.948 624.176 850.717 623.981 850.429 623.825C850.147 623.669 849.823 623.537 849.457 623.429C849.091 623.321 848.719 623.207 848.341 623.087C847.963 622.961 847.591 622.817 847.225 622.655C846.859 622.487 846.532 622.271 846.244 622.007C845.962 621.737 845.734 621.407 845.56 621.017C845.386 620.621 845.299 620.129 845.299 619.541C845.299 619.073 845.389 618.62 845.569 618.182C845.755 617.744 846.022 617.357 846.37 617.021C846.724 616.679 847.159 616.406 847.675 616.202C848.191 615.998 848.779 615.896 849.439 615.896C850.183 615.896 850.864 616.013 851.482 616.247C852.106 616.481 852.643 616.814 853.093 617.246L852.58 618.254Z" fill="#101828"/>
<rect x="976" y="602" width="40" height="40" rx="20" fill="#101828"/>
<path d="M993 629V623C993 622.735 992.895 622.48 992.707 622.293C992.52 622.105 992.265 622 992 622H988C987.735 622 987.48 622.105 987.293 622.293C987.105 622.48 987 622.735 987 623V629C987 629.265 987.105 629.52 987.293 629.707C987.48 629.895 987.735 630 988 630M993 629C993 629.265 992.895 629.52 992.707 629.707C992.52 629.895 992.265 630 992 630H988M993 629C993 629.265 993.105 629.52 993.293 629.707C993.48 629.895 993.735 630 994 630H998C998.265 630 998.52 629.895 998.707 629.707C998.895 629.52 999 629.265 999 629M993 629V619C993 618.735 993.105 618.48 993.293 618.293C993.48 618.105 993.735 618 994 618H998C998.265 618 998.52 618.105 998.707 618.293C998.895 618.48 999 618.735 999 619V629M988 630H1002M999 629C999 629.265 999.105 629.52 999.293 629.707C999.48 629.895 999.735 630 1000 630H1004C1004.27 630 1004.52 629.895 1004.71 629.707C1004.89 629.52 1005 629.265 1005 629V615C1005 614.735 1004.89 614.48 1004.71 614.293C1004.52 614.105 1004.27 614 1004 614H1000C999.735 614 999.48 614.105 999.293 614.293C999.105 614.48 999 614.735 999 615V629Z" stroke="white" stroke-width="1.5" stroke-linecap="round" stroke-linejoin="round"/>
<rect x="816" y="690" width="295" height="56" rx="28" fill="white"/>
<path d="M841.301 718.25C841.781 718.25 842.201 718.193 842.561 718.079C842.921 717.959 843.221 717.794 843.461 717.584C843.701 717.374 843.881 717.125 844.001 716.837C844.121 716.543 844.181 716.219 844.181 715.865C844.181 715.157 843.947 714.617 843.479 714.245C843.011 713.873 842.303 713.687 841.355 713.687H839.645V718.25H841.301ZM847.403 725H845.522C845.15 725 844.88 724.856 844.712 724.568L841.688 720.203C841.586 720.053 841.475 719.945 841.355 719.879C841.235 719.813 841.055 719.78 840.815 719.78H839.645V725H837.539V712.04H841.355C842.207 712.04 842.939 712.127 843.551 712.301C844.169 712.475 844.676 712.724 845.072 713.048C845.468 713.366 845.759 713.75 845.945 714.2C846.137 714.65 846.233 715.151 846.233 715.703C846.233 716.153 846.164 716.573 846.026 716.963C845.894 717.353 845.699 717.707 845.441 718.025C845.189 718.343 844.877 718.619 844.505 718.853C844.133 719.087 843.71 719.27 843.236 719.402C843.494 719.558 843.716 719.777 843.902 720.059L847.403 725ZM857.056 723.299L857.047 725H848.965V712.04H857.047V713.741H851.08V717.647H855.85V719.294H851.08V723.299H857.056ZM866.824 723.236V725H859.336V712.04H861.442V723.236H866.824ZM876.726 723.299L876.717 725H868.635V712.04H876.717V713.741H870.75V717.647H875.52V719.294H870.75V723.299H876.726ZM885.864 720.14L884.082 715.406C883.938 715.04 883.791 714.575 883.641 714.011C883.575 714.293 883.503 714.554 883.425 714.794C883.347 715.028 883.275 715.235 883.209 715.415L881.427 720.14H885.864ZM889.851 725H888.222C888.036 725 887.886 724.955 887.772 724.865C887.658 724.769 887.571 724.652 887.511 724.514L886.431 721.652H880.851L879.771 724.514C879.723 724.634 879.639 724.745 879.519 724.847C879.399 724.949 879.249 725 879.069 725H877.44L882.579 712.04H884.712L889.851 725ZM898.14 714.254C898.074 714.362 898.005 714.443 897.933 714.497C897.861 714.545 897.771 714.569 897.663 714.569C897.549 714.569 897.42 714.521 897.276 714.425C897.138 714.329 896.964 714.224 896.754 714.11C896.55 713.99 896.307 713.882 896.025 713.786C895.743 713.684 895.407 713.633 895.017 713.633C894.657 713.633 894.339 713.678 894.063 713.768C893.793 713.858 893.565 713.984 893.379 714.146C893.193 714.308 893.052 714.5 892.956 714.722C892.866 714.938 892.821 715.175 892.821 715.433C892.821 715.763 892.908 716.039 893.082 716.261C893.256 716.477 893.484 716.663 893.766 716.819C894.054 716.975 894.381 717.113 894.747 717.233C895.113 717.347 895.485 717.47 895.863 717.602C896.247 717.734 896.622 717.884 896.988 718.052C897.354 718.22 897.678 718.433 897.96 718.691C898.248 718.949 898.479 719.264 898.653 719.636C898.827 720.008 898.914 720.461 898.914 720.995C898.914 721.571 898.815 722.111 898.617 722.615C898.419 723.119 898.131 723.56 897.753 723.938C897.381 724.31 896.919 724.604 896.367 724.82C895.821 725.036 895.197 725.144 894.495 725.144C894.081 725.144 893.676 725.102 893.28 725.018C892.89 724.94 892.515 724.829 892.155 724.685C891.801 724.535 891.468 724.355 891.156 724.145C890.844 723.935 890.565 723.701 890.319 723.443L890.931 722.435C890.985 722.351 891.054 722.285 891.138 722.237C891.222 722.189 891.315 722.165 891.417 722.165C891.555 722.165 891.708 722.231 891.876 722.363C892.044 722.489 892.245 722.63 892.479 722.786C892.719 722.936 893.007 723.077 893.343 723.209C893.679 723.335 894.081 723.398 894.549 723.398C895.311 723.398 895.899 723.212 896.313 722.84C896.733 722.468 896.943 721.955 896.943 721.301C896.943 720.935 896.856 720.638 896.682 720.41C896.508 720.176 896.277 719.981 895.989 719.825C895.707 719.669 895.383 719.537 895.017 719.429C894.651 719.321 894.279 719.207 893.901 719.087C893.523 718.961 893.151 718.817 892.785 718.655C892.419 718.487 892.092 718.271 891.804 718.007C891.522 717.737 891.294 717.407 891.12 717.017C890.946 716.621 890.859 716.129 890.859 715.541C890.859 715.073 890.949 714.62 891.129 714.182C891.315 713.744 891.582 713.357 891.93 713.021C892.284 712.679 892.719 712.406 893.235 712.202C893.751 711.998 894.339 711.896 894.999 711.896C895.743 711.896 896.424 712.013 897.042 712.247C897.666 712.481 898.203 712.814 898.653 713.246L898.14 714.254ZM909.28 723.299L909.271 725H901.189V712.04H909.271V713.741H903.304V717.647H908.074V719.294H903.304V723.299H909.28ZM918.815 718.79C918.263 719.114 917.855 719.492 917.591 719.924C917.327 720.356 917.195 720.824 917.195 721.328C917.195 721.682 917.258 722 917.384 722.282C917.516 722.558 917.687 722.792 917.897 722.984C918.113 723.176 918.359 723.323 918.635 723.425C918.917 723.527 919.208 723.578 919.508 723.578C920.102 723.578 920.642 723.479 921.128 723.281C921.614 723.077 922.046 722.804 922.424 722.462L918.815 718.79ZM927.329 725H925.448C925.346 725 925.253 724.994 925.169 724.982C925.091 724.97 925.016 724.952 924.944 724.928C924.878 724.898 924.812 724.859 924.746 724.811C924.686 724.763 924.62 724.7 924.548 724.622L923.468 723.524C922.898 724.028 922.25 724.424 921.524 724.712C920.804 725 920.021 725.144 919.175 725.144C918.683 725.144 918.2 725.06 917.726 724.892C917.258 724.724 916.838 724.484 916.466 724.172C916.094 723.854 915.794 723.47 915.566 723.02C915.338 722.564 915.224 722.051 915.224 721.481C915.224 721.067 915.29 720.677 915.422 720.311C915.56 719.945 915.749 719.606 915.989 719.294C916.235 718.976 916.523 718.691 916.853 718.439C917.183 718.187 917.546 717.971 917.942 717.791C917.6 717.335 917.351 716.891 917.195 716.459C917.039 716.027 916.961 715.589 916.961 715.145C916.961 714.701 917.042 714.281 917.204 713.885C917.366 713.489 917.6 713.144 917.906 712.85C918.218 712.556 918.593 712.325 919.031 712.157C919.475 711.983 919.976 711.896 920.534 711.896C921.038 711.896 921.491 711.974 921.893 712.13C922.301 712.286 922.649 712.496 922.937 712.76C923.231 713.024 923.459 713.327 923.621 713.669C923.789 714.011 923.888 714.365 923.918 714.731L922.694 714.983C922.586 715.007 922.484 714.992 922.388 714.938C922.298 714.884 922.229 714.794 922.181 714.668C922.133 714.512 922.064 714.359 921.974 714.209C921.884 714.053 921.773 713.915 921.641 713.795C921.509 713.675 921.35 713.579 921.164 713.507C920.984 713.429 920.774 713.39 920.534 713.39C920.258 713.39 920.009 713.435 919.787 713.525C919.571 713.615 919.385 713.741 919.229 713.903C919.079 714.059 918.962 714.242 918.878 714.452C918.8 714.662 918.761 714.887 918.761 715.127C918.761 715.319 918.782 715.505 918.824 715.685C918.866 715.865 918.935 716.045 919.031 716.225C919.127 716.405 919.247 716.591 919.391 716.783C919.541 716.969 919.721 717.17 919.931 717.386L923.504 721.067C923.72 720.671 923.891 720.26 924.017 719.834C924.143 719.402 924.227 718.967 924.269 718.529C924.281 718.403 924.323 718.304 924.395 718.232C924.467 718.154 924.563 718.115 924.683 718.115H925.88C925.874 718.865 925.76 719.588 925.538 720.284C925.322 720.974 925.016 721.616 924.62 722.21L927.329 725ZM940.222 714.254C940.156 714.362 940.087 714.443 940.015 714.497C939.943 714.545 939.853 714.569 939.745 714.569C939.631 714.569 939.502 714.521 939.358 714.425C939.22 714.329 939.046 714.224 938.836 714.11C938.632 713.99 938.389 713.882 938.107 713.786C937.825 713.684 937.489 713.633 937.099 713.633C936.739 713.633 936.421 713.678 936.145 713.768C935.875 713.858 935.647 713.984 935.461 714.146C935.275 714.308 935.134 714.5 935.038 714.722C934.948 714.938 934.903 715.175 934.903 715.433C934.903 715.763 934.99 716.039 935.164 716.261C935.338 716.477 935.566 716.663 935.848 716.819C936.136 716.975 936.463 717.113 936.829 717.233C937.195 717.347 937.567 717.47 937.945 717.602C938.329 717.734 938.704 717.884 939.07 718.052C939.436 718.22 939.76 718.433 940.042 718.691C940.33 718.949 940.561 719.264 940.735 719.636C940.909 720.008 940.996 720.461 940.996 720.995C940.996 721.571 940.897 722.111 940.699 722.615C940.501 723.119 940.213 723.56 939.835 723.938C939.463 724.31 939.001 724.604 938.449 724.82C937.903 725.036 937.279 725.144 936.577 725.144C936.163 725.144 935.758 725.102 935.362 725.018C934.972 724.94 934.597 724.829 934.237 724.685C933.883 724.535 933.55 724.355 933.238 724.145C932.926 723.935 932.647 723.701 932.401 723.443L933.013 722.435C933.067 722.351 933.136 722.285 933.22 722.237C933.304 722.189 933.397 722.165 933.499 722.165C933.637 722.165 933.79 722.231 933.958 722.363C934.126 722.489 934.327 722.63 934.561 722.786C934.801 722.936 935.089 723.077 935.425 723.209C935.761 723.335 936.163 723.398 936.631 723.398C937.393 723.398 937.981 723.212 938.395 722.84C938.815 722.468 939.025 721.955 939.025 721.301C939.025 720.935 938.938 720.638 938.764 720.41C938.59 720.176 938.359 719.981 938.071 719.825C937.789 719.669 937.465 719.537 937.099 719.429C936.733 719.321 936.361 719.207 935.983 719.087C935.605 718.961 935.233 718.817 934.867 718.655C934.501 718.487 934.174 718.271 933.886 718.007C933.604 717.737 933.376 717.407 933.202 717.017C933.028 716.621 932.941 716.129 932.941 715.541C932.941 715.073 933.031 714.62 933.211 714.182C933.397 713.744 933.664 713.357 934.012 713.021C934.366 712.679 934.801 712.406 935.317 712.202C935.833 711.998 936.421 711.896 937.081 711.896C937.825 711.896 938.506 712.013 939.124 712.247C939.748 712.481 940.285 712.814 940.735 713.246L940.222 714.254ZM948.383 723.299C948.881 723.299 949.325 723.215 949.715 723.047C950.111 722.879 950.444 722.645 950.714 722.345C950.99 722.045 951.2 721.685 951.344 721.265C951.488 720.839 951.56 720.368 951.56 719.852V712.04H953.657V719.852C953.657 720.614 953.534 721.319 953.288 721.967C953.048 722.615 952.7 723.176 952.244 723.65C951.788 724.118 951.233 724.487 950.579 724.757C949.931 725.021 949.199 725.153 948.383 725.153C947.567 725.153 946.832 725.021 946.178 724.757C945.53 724.487 944.978 724.118 944.522 723.65C944.066 723.176 943.715 722.615 943.469 721.967C943.229 721.319 943.109 720.614 943.109 719.852V712.04H945.215V719.843C945.215 720.359 945.287 720.83 945.431 721.256C945.575 721.676 945.782 722.039 946.052 722.345C946.322 722.645 946.652 722.879 947.042 723.047C947.438 723.215 947.885 723.299 948.383 723.299ZM960.61 718.646C961.078 718.646 961.489 718.586 961.843 718.466C962.203 718.346 962.5 718.178 962.734 717.962C962.974 717.74 963.154 717.473 963.274 717.161C963.394 716.849 963.454 716.501 963.454 716.117C963.454 715.739 963.394 715.4 963.274 715.1C963.16 714.8 962.986 714.545 962.752 714.335C962.518 714.125 962.221 713.966 961.861 713.858C961.507 713.744 961.09 713.687 960.61 713.687H958.684V718.646H960.61ZM960.61 712.04C961.456 712.04 962.188 712.139 962.806 712.337C963.43 712.535 963.943 712.814 964.345 713.174C964.753 713.528 965.056 713.957 965.254 714.461C965.452 714.959 965.551 715.511 965.551 716.117C965.551 716.735 965.446 717.302 965.236 717.818C965.026 718.328 964.714 718.769 964.3 719.141C963.886 719.507 963.37 719.795 962.752 720.005C962.14 720.209 961.426 720.311 960.61 720.311H958.684V725H956.578V712.04H960.61ZM971.596 718.646C972.064 718.646 972.475 718.586 972.829 718.466C973.189 718.346 973.486 718.178 973.72 717.962C973.96 717.74 974.14 717.473 974.26 717.161C974.38 716.849 974.44 716.501 974.44 716.117C974.44 715.739 974.38 715.4 974.26 715.1C974.146 714.8 973.972 714.545 973.738 714.335C973.504 714.125 973.207 713.966 972.847 713.858C972.493 713.744 972.076 713.687 971.596 713.687H969.67V718.646H971.596ZM971.596 712.04C972.442 712.04 973.174 712.139 973.792 712.337C974.416 712.535 974.929 712.814 975.331 713.174C975.739 713.528 976.042 713.957 976.24 714.461C976.438 714.959 976.537 715.511 976.537 716.117C976.537 716.735 976.432 717.302 976.222 717.818C976.012 718.328 975.7 718.769 975.286 719.141C974.872 719.507 974.356 719.795 973.738 720.005C973.126 720.209 972.412 720.311 971.596 720.311H969.67V725H967.564V712.04H971.596ZM990.728 718.52C990.728 719.48 990.572 720.365 990.26 721.175C989.948 721.985 989.507 722.684 988.937 723.272C988.373 723.854 987.692 724.31 986.894 724.64C986.102 724.97 985.22 725.135 984.248 725.135C983.282 725.135 982.4 724.97 981.602 724.64C980.81 724.31 980.129 723.854 979.559 723.272C978.989 722.684 978.548 721.985 978.236 721.175C977.924 720.365 977.768 719.48 977.768 718.52C977.768 717.56 977.924 716.675 978.236 715.865C978.548 715.055 978.989 714.356 979.559 713.768C980.129 713.18 980.81 712.721 981.602 712.391C982.4 712.061 983.282 711.896 984.248 711.896C985.22 711.896 986.102 712.061 986.894 712.391C987.692 712.721 988.373 713.18 988.937 713.768C989.507 714.356 989.948 715.055 990.26 715.865C990.572 716.675 990.728 717.56 990.728 718.52ZM988.577 718.52C988.577 717.776 988.475 717.107 988.271 716.513C988.073 715.919 987.785 715.415 987.407 715.001C987.035 714.587 986.582 714.269 986.048 714.047C985.514 713.825 984.914 713.714 984.248 713.714C983.588 713.714 982.991 713.825 982.457 714.047C981.923 714.269 981.467 714.587 981.089 715.001C980.711 715.415 980.42 715.919 980.216 716.513C980.012 717.107 979.91 717.776 979.91 718.52C979.91 719.27 980.012 719.942 980.216 720.536C980.42 721.13 980.711 721.634 981.089 722.048C981.467 722.456 981.923 722.771 982.457 722.993C982.991 723.209 983.588 723.317 984.248 723.317C984.914 723.317 985.514 723.209 986.048 722.993C986.582 722.771 987.035 722.456 987.407 722.048C987.785 721.634 988.073 721.13 988.271 720.536C988.475 719.942 988.577 719.27 988.577 718.52ZM996.797 718.25C997.277 718.25 997.697 718.193 998.057 718.079C998.417 717.959 998.717 717.794 998.957 717.584C999.197 717.374 999.377 717.125 999.497 716.837C999.617 716.543 999.677 716.219 999.677 715.865C999.677 715.157 999.443 714.617 998.975 714.245C998.507 713.873 997.799 713.687 996.851 713.687H995.141V718.25H996.797ZM1002.9 725H1001.02C1000.65 725 1000.38 724.856 1000.21 724.568L997.184 720.203C997.082 720.053 996.971 719.945 996.851 719.879C996.731 719.813 996.551 719.78 996.311 719.78H995.141V725H993.035V712.04H996.851C997.703 712.04 998.435 712.127 999.047 712.301C999.665 712.475 1000.17 712.724 1000.57 713.048C1000.96 713.366 1001.26 713.75 1001.44 714.2C1001.63 714.65 1001.73 715.151 1001.73 715.703C1001.73 716.153 1001.66 716.573 1001.52 716.963C1001.39 717.353 1001.2 717.707 1000.94 718.025C1000.69 718.343 1000.37 718.619 1000 718.853C999.629 719.087 999.206 719.27 998.732 719.402C998.99 719.558 999.212 719.777 999.398 720.059L1002.9 725ZM1012.99 713.795H1008.95V725H1006.86V713.795H1002.81V712.04H1012.99V713.795Z" fill="#101828"/>
<rect x="1063" y="698" width="40" height="40" rx="20" fill="#101828"/>
<path d="M1075 719C1075.32 721.532 1076.88 723.781 1079 725M1091 717C1090.76 715.24 1089.94 713.609 1088.68 712.359C1087.41 711.109 1085.78 710.309 1084.01 710.081C1082.25 709.854 1080.46 710.212 1078.93 711.101C1077.39 711.99 1076.18 713.36 1075.5 715M1075 711V715H1079M1083 721H1085C1085.27 721 1085.52 721.105 1085.71 721.293C1085.89 721.48 1086 721.735 1086 722V723C1086 723.265 1085.89 723.519 1085.71 723.707C1085.52 723.894 1085.27 724 1085 724H1084C1083.73 724 1083.48 724.105 1083.29 724.293C1083.11 724.48 1083 724.735 1083 725V726C1083 726.265 1083.11 726.519 1083.29 726.707C1083.48 726.894 1083.73 727 1084 727H1086M1089 721V723C1089 723.265 1089.11 723.519 1089.29 723.707C1089.48 723.894 1089.73 724 1090 724H1091M1092 721V727" stroke="white" stroke-width="1.5" stroke-linecap="round" stroke-linejoin="round"/>
<defs>
<linearGradient id="paint0_linear_299_2602" x1="62.5" y1="806" x2="62.5" y2="153" gradientUnits="userSpaceOnUse">
<stop stop-color="white" stop-opacity="0.2"/>
<stop offset="0.465" stop-color="#2B313B"/>
<stop offset="1" stop-color="#0E1116"/>
</linearGradient>
<linearGradient id="paint1_linear_299_2602" x1="149.834" y1="806" x2="149.833" y2="153" gradientUnits="userSpaceOnUse">
<stop stop-color="white" stop-opacity="0.2"/>
<stop offset="0.465" stop-color="#2B313B"/>
<stop offset="1" stop-color="#0E1116"/>
</linearGradient>
<linearGradient id="paint2_linear_299_2602" x1="237.167" y1="806" x2="237.166" y2="153" gradientUnits="userSpaceOnUse">
<stop stop-color="white" stop-opacity="0.2"/>
<stop offset="0.465" stop-color="#2B313B"/>
<stop offset="1" stop-color="#0E1116"/>
</linearGradient>
<linearGradient id="paint3_linear_299_2602" x1="324.5" y1="806" x2="324.5" y2="153" gradientUnits="userSpaceOnUse">
<stop stop-color="white" stop-opacity="0.2"/>
<stop offset="0.465" stop-color="#2B313B"/>
<stop offset="1" stop-color="#0E1116"/>
</linearGradient>
<linearGradient id="paint4_linear_299_2602" x1="411.834" y1="806" x2="411.833" y2="153" gradientUnits="userSpaceOnUse">
<stop stop-color="white" stop-opacity="0.2"/>
<stop offset="0.465" stop-color="#2B313B"/>
<stop offset="1" stop-color="#0E1116"/>
</linearGradient>
<linearGradient id="paint5_linear_299_2602" x1="499.167" y1="806" x2="499.166" y2="153" gradientUnits="userSpaceOnUse">
<stop stop-color="white" stop-opacity="0.2"/>
<stop offset="0.465" stop-color="#2B313B"/>
<stop offset="1" stop-color="#0E1116"/>
</linearGradient>
<linearGradient id="paint6_linear_299_2602" x1="586.5" y1="806" x2="586.5" y2="153" gradientUnits="userSpaceOnUse">
<stop stop-color="white" stop-opacity="0.2"/>
<stop offset="0.465" stop-color="#2B313B"/>
<stop offset="1" stop-color="#0E1116"/>
</linearGradient>
<linearGradient id="paint7_linear_299_2602" x1="673.834" y1="806" x2="673.833" y2="153" gradientUnits="userSpaceOnUse">
<stop stop-color="white" stop-opacity="0.2"/>
<stop offset="0.465" stop-color="#2B313B"/>
<stop offset="1" stop-color="#0E1116"/>
</linearGradient>
<linearGradient id="paint8_linear_299_2602" x1="761.167" y1="806" x2="761.166" y2="153" gradientUnits="userSpaceOnUse">
<stop stop-color="white" stop-opacity="0.2"/>
<stop offset="0.465" stop-color="#2B313B"/>
<stop offset="1" stop-color="#0E1116"/>
</linearGradient>
<linearGradient id="paint9_linear_299_2602" x1="848.5" y1="806" x2="848.5" y2="153" gradientUnits="userSpaceOnUse">
<stop stop-color="white" stop-opacity="0.2"/>
<stop offset="0.465" stop-color="#2B313B"/>
<stop offset="1" stop-color="#0E1116"/>
</linearGradient>
<linearGradient id="paint10_linear_299_2602" x1="935.833" y1="806" x2="935.833" y2="153" gradientUnits="userSpaceOnUse">
<stop stop-color="white" stop-opacity="0.2"/>
<stop offset="0.465" stop-color="#2B313B"/>
<stop offset="1" stop-color="#0E1116"/>
</linearGradient>
<linearGradient id="paint11_linear_299_2602" x1="1023.17" y1="806" x2="1023.17" y2="153" gradientUnits="userSpaceOnUse">
<stop stop-color="white" stop-opacity="0.2"/>
<stop offset="0.465" stop-color="#2B313B"/>
<stop offset="1" stop-color="#0E1116"/>
</linearGradient>
<linearGradient id="paint12_linear_299_2602" x1="1110.5" y1="806" x2="1110.5" y2="153" gradientUnits="userSpaceOnUse">
<stop stop-color="white" stop-opacity="0.2"/>
<stop offset="0.465" stop-color="#2B313B"/>
<stop offset="1" stop-color="#0E1116"/>
</linearGradient>
</defs>
</svg>
