<svg width="44" height="44" viewBox="0 0 44 44" fill="none" xmlns="http://www.w3.org/2000/svg">
<circle cx="22" cy="22" r="22" fill="#0E1116"/>
<circle cx="22" cy="22" r="22" fill="url(#paint0_radial_834_919)" fill-opacity="0.2"/>
<circle cx="22" cy="22" r="21.5" stroke="#919191" stroke-opacity="0.2"/>
<g clip-path="url(#clip0_834_919)">
<path d="M22 8C14.268 8 8 14.268 8 22C15.732 22 22 15.732 22 8Z" fill="white"/>
<path d="M22 36C29.732 36 36 29.732 36 22C28.268 22 22 28.268 22 36Z" fill="white"/>
<path d="M22 8C29.732 8 36 14.268 36 22C28.268 22 22 15.732 22 8Z" fill="white"/>
<path d="M22 36C14.268 36 8 29.732 8 22C15.732 22 22 28.268 22 36Z" fill="white"/>
</g>
<defs>
<radialGradient id="paint0_radial_834_919" cx="0" cy="0" r="1" gradientUnits="userSpaceOnUse" gradientTransform="translate(22 44) rotate(-90) scale(28.1111 37.3769)">
<stop stop-color="white"/>
<stop offset="1" stop-color="#DCDCDC" stop-opacity="0"/>
</radialGradient>
<clipPath id="clip0_834_919">
<rect width="28" height="28" fill="white" transform="translate(8 8)"/>
</clipPath>
</defs>
</svg>
