<svg width="20" height="20" viewBox="0 0 20 20" fill="none" xmlns="http://www.w3.org/2000/svg">
<g id="Project Detail Icon">
<path id="Vector" d="M10.0087 1.67578C10.6569 1.67582 11.2828 1.91192 11.7695 2.33995L11.8979 2.46078L12.4795 3.04245C12.6392 3.20104 12.8476 3.30116 13.0712 3.32661L13.1837 3.33328H14.017C14.698 3.33324 15.3533 3.59376 15.8483 4.0614C16.3434 4.52904 16.6408 5.16837 16.6795 5.84828L16.6837 5.99995V6.83328C16.6837 7.05828 16.7604 7.27745 16.8987 7.45245L16.9737 7.53578L17.5545 8.11745C18.036 8.59615 18.3167 9.24046 18.3394 9.91901C18.3622 10.5975 18.1253 11.2592 17.677 11.7691L17.5562 11.8974L16.9745 12.4791C16.8159 12.6387 16.7158 12.8472 16.6904 13.0708L16.6837 13.1833V14.0166C16.6837 14.6976 16.4232 15.3529 15.9556 15.8479C15.4879 16.343 14.8486 16.6404 14.1687 16.6791L14.017 16.6833H13.1837C12.959 16.6834 12.7409 16.7591 12.5645 16.8983L12.4812 16.9733L11.8995 17.5541C11.4208 18.0355 10.7765 18.3163 10.098 18.339C9.41943 18.3618 8.75776 18.1249 8.24786 17.6766L8.11953 17.5558L7.53786 16.9741C7.37823 16.8155 7.16977 16.7154 6.9462 16.6899L6.8337 16.6833H6.00036C5.31935 16.6833 4.66412 16.4228 4.16906 15.9552C3.67399 15.4875 3.3766 14.8482 3.33786 14.1683L3.3337 14.0166V13.1833C3.33362 12.9586 3.25789 12.7405 3.1187 12.5641L3.0437 12.4808L2.46286 11.8991C1.98143 11.4204 1.70072 10.7761 1.67795 10.0976C1.65519 9.41902 1.8921 8.75734 2.34036 8.24745L2.4612 8.11912L3.04286 7.53745C3.20146 7.37782 3.30157 7.16936 3.32703 6.94578L3.3337 6.83328V5.99995L3.33786 5.84828C3.37507 5.19449 3.65155 4.57724 4.1146 4.11419C4.57766 3.65114 5.1949 3.37466 5.8487 3.33745L6.00036 3.33328H6.8337C7.05838 3.33321 7.27649 3.25747 7.45286 3.11828L7.5362 3.04328L8.11786 2.46245C8.36564 2.21319 8.66025 2.01537 8.98475 1.88036C9.30925 1.74536 9.65724 1.67583 10.0087 1.67578ZM13.0895 7.74412C12.9333 7.58789 12.7213 7.50013 12.5004 7.50013C12.2794 7.50013 12.0675 7.58789 11.9112 7.74412L9.16703 10.4874L8.08953 9.41078L8.0112 9.34162C7.8437 9.21211 7.63319 9.1512 7.42243 9.17128C7.21166 9.19136 7.01643 9.29091 6.8764 9.44972C6.73638 9.60852 6.66204 9.81467 6.66851 10.0263C6.67497 10.2379 6.76174 10.4391 6.9112 10.5891L8.57786 12.2558L8.6562 12.3249C8.81653 12.4493 9.01674 12.5109 9.21926 12.4982C9.42179 12.4855 9.6127 12.3993 9.7562 12.2558L13.0895 8.92245L13.1587 8.84412C13.2831 8.68378 13.3447 8.48357 13.3319 8.28105C13.3192 8.07853 13.233 7.88761 13.0895 7.74412Z" fill="white"/>
</g>
</svg>
